<?xml version="1.0" encoding="utf-8"?>
<!-- Generator: Adobe Illustrator 19.2.0, SVG Export Plug-In . SVG Version: 6.00 Build 0)  -->
<svg version="1.1" id="Layer_1" xmlns="http://www.w3.org/2000/svg" xmlns:xlink="http://www.w3.org/1999/xlink" x="0px" y="0px"
	 viewBox="0 0 320.5 40.4" style="enable-background:new 0 0 320.5 40.4;" xml:space="preserve">
<style type="text/css">
	.st0{fill:#231F20;}
</style>
<g>
	<g>
		<g>
			<path class="st0" d="M73.9,29.9l-3.5,10.3h-8.1l14.2-40h8.5l14.2,40H91l-3.5-10.3H73.9z M80.7,8.8l-4.6,14.4h9.3L80.7,8.8z"/>
			<path class="st0" d="M107.7,7.4h-9.4V0.2h26.8v7.3h-9.3v32.8h-8.1V7.4z"/>
			<path class="st0" d="M141.1,40.2V22.3h-6.8v17.9h-4.4V0.1h4.4v18.2h6.8V0.1h4.3v40.1H141.1z"/>
			<path class="st0" d="M150.7,40.2V0.1h21.7v5.7h-15.3v10.5h11v5.4h-11v12.7h15.3v5.7H150.7z"/>
		</g>
		<g>
			<path class="st0" d="M46.2,20.5v3.4c0,13.7,2.5,15.6,3.5,15.6c0.7,0,1.6-1,1.6-2.7c0-4.6,1.3-10.7,7.2-12.2
				c0.2-0.1,0.4,0.1,0.3,0.2c-1.2,2.5-1,4.4-1,5.9c0,3,0.8,7.4,1.7,9.2c0.1,0.1,0.1,0.2-0.1,0.2H34.6v-1h0.8
				c0.9-1.9,3.7-8.7,3.7-19.7C39.1,9.9,36,2.7,35.4,1h-0.8V0h23.7c0.2,0,0.3,0.1,0.2,0.3c-0.7,2.6-1.2,5.9-1.2,7.6
				c0,1.6,0.3,5.3,1.3,7.3c0.1,0.2,0,0.3-0.2,0.3c-7.9-2-7.9-9.2-7.9-11.6c0-1.4-0.2-2.9-1.3-2.9c-2.4,0-3.1,8.8-3.1,15.6v2.7h1
				c1.9,0,3.2-1.3,3.2-3.8c0-1.1-0.4-2.1-1-3.3c-0.1-0.1-0.1-0.2,0-0.3l0.4-0.3c0.2-0.1,0.3-0.1,0.3,0c0.9,1.1,3.5,3.8,3.5,8
				c0,4.3-1.9,6.9-3.3,8.2C50.2,28,50.1,28.1,50,28l-0.5-0.5c-0.2-0.2-0.1-0.2,0.2-0.5c1.1-1.4,0.9-3.7,0.4-4.7
				c-0.6-1.3-1.8-1.8-2.8-1.8H46.2z"/>
		</g>
		<g>
			<path class="st0" d="M188.1,23.4c0,8.5,2.8,14.1,3.7,15.8h1.2v1h-15.8v-1h0.8c1.1-2.4,3.1-9.1,3.1-20.5c0-10.5-2.3-16.1-3.1-17.8
				h-0.8V0h17.1c3.1,0,9.3,1.1,9.3,10.2c0,5.4-2.7,8.8-7.8,9.9v0.1c5.6,1.8,7.5,4.2,7.5,13.9c0,1.7,0.1,3,1.1,3
				c0.5,0,1.2-0.4,1.3-1.2c0,0,0-0.1,0.1-0.1h0.4c0.1,0,0.1,0.1,0.1,0.2c0,0.8-0.3,4.3-5.9,4.3c-4.9,0-6.2-3.4-6.2-6.4
				c0-1.7,0.6-3.4,0.6-6.4c0-3.1-0.5-6.8-4.6-6.8h-2.3V23.4z M189.4,19.7c4.6,0,5.3-4,5.3-9.6c0-4.3-0.6-9.1-3.5-9.1
				c-3.1,0-3.2,12.3-3.2,16v2.7H189.4z"/>
		</g>
		<g>
			<path class="st0" d="M23.8,40.2V22.8H6.6v17.4H0V0.1h6.6v17h17.2v-17h6.7v40.1H23.8z"/>
		</g>
	</g>
	<g>
		<g>
			<path class="st0" d="M227.2,0.1h8.1V33h13.1v7.3h-21.2V0.1z"/>
		</g>
		<g>
			<path class="st0" d="M262.5,24.1v16.2h-5.7V24.1l-9.7-24h6.2l6.6,18.5l6.6-18.5h5.7L262.5,24.1z"/>
		</g>
		<g>
			<g>
				<path class="st0" d="M287.5,0c-0.2,1.2-0.2,2.8-0.2,3.7c0,4.5,4.2,14.6,7.7,24.1h0.1V20c0-3-0.7-14.1-3.9-19h-0.9V0h10.3v1h-0.9
					c-1.7,4.1-3.7,8.3-3.7,19.3c0,2.4,0.1,17.6,0.3,19.8h-5.3c-0.5-2-8.6-25.3-9.4-28.1h-0.1v8c0,3,0.7,14.2,3.8,19.1h0.9v1h-10.2
					v-1h0.9c0.9-1.4,3.7-7.1,3.7-19.2C280.7,7.6,278,3.3,277,1h-0.9V0H287.5z"/>
			</g>
			<g>
				<path class="st0" d="M317.3,40.1l-6.8-20.3l-1.9-6.4v26.7h-4.1V0h3.9l6.2,20.6l1.8,6.5V0h4.1v40H317.3z"/>
			</g>
		</g>
	</g>
</g>
</svg>
