<?xml version="1.0" encoding="utf-8"?>
<!-- Generator: Adobe Illustrator 19.2.0, SVG Export Plug-In . SVG Version: 6.00 Build 0)  -->
<svg version="1.1" id="Layer_1" xmlns="http://www.w3.org/2000/svg" xmlns:xlink="http://www.w3.org/1999/xlink" x="0px" y="0px"
	 viewBox="0 0 167.8 108.7" style="enable-background:new 0 0 167.8 108.7;" xml:space="preserve">
<style type="text/css">
	.st0{fill:#0047F1;}
</style>
<g>
	<path class="st0" d="M57.9,44.3c-0.4,0.1-0.7,0.1-0.8,0.2C57.4,44.4,57.6,44.4,57.9,44.3z"/>
	<path class="st0" d="M48.1,33.4c-0.1-0.2-0.1-0.5-0.2-0.7"/>
	<path class="st0" d="M44.6,28.1c-0.3-0.2-0.5-0.4-0.7-0.7c0,0,0.1,0,0.1,0.1C44.2,27.7,44.4,27.9,44.6,28.1z"/>
	<path class="st0" d="M57.1,44.5c0.1,0,0.4,0,0.8-0.2C57.6,44.4,57.4,44.4,57.1,44.5z"/>
	<path class="st0" d="M64.1,47.3c-5-4-2.7-8.3-2.7-8.3c-1.3,0.2-2.5,2.9-2.6,3c-1,1.7-2.5,2.3-3.4,2.5c-0.5,0.1-0.8,0.1-0.8,0.1l0,0
		c0,0-4.6,0.7-5.2-1.6L49,36.8c3.5-1.1,7.3-1.3,10.5,0.1l0.2-0.1c-1.7-1.8-3.1-3.3-8.6-3.1c-0.8,0-1.6,0.2-2.4,0.4l-0.3-3.8l0,0
		c0-0.2,0.1-0.4,0.2-0.5c0.1-0.1,0.3-0.2,0.5-0.3c1.4-0.5,2.9-0.9,4.3-1.1c0.4-0.1,0.9-0.1,1.3,0c1,0.2,1.7,0.9,2.5,1.6
		c0.7,0.7,1.6,1.4,2.6,1.3c-1.2-1.1-1.7-2.8-1.6-4.4c0.1-1.6,0.7-3.2,1.6-4.5c0,0-1.5,0.1-3.5,1.3c0,0-5.2,3.4-10.8,2.2
		c0,0-2.1-0.1-3.9-1.5c0,0-0.5,1.2,1.6,2.7c0.1,0.1,0.2,0.1,0.2,0.2c0.1,0.1,0.2,0.1,0.2,0.2c0,0,0.1,0,0.1,0.1
		c0.2,0.2,0.5,0.4,0.7,0.6c0.4,0.5,0.7,1.1,0.9,1.6c0.1,0.1,0.1,0.3,0.1,0.4l0,0c0,0.1,0,0.2,0,0.2l0.3,4.7
		c-1.9,0.6-3.7,1.5-5.5,2.4l-0.7-17.2l0.1-0.2c0,0,2.6-4.2,6.1-5.5c0,0-1.8-0.8-4.6,0.8c0,0-3.9,2.2-8.4,2.3c0,0-2.4-0.1-3.3-0.6
		c0,0,0.1,1.9,3.7,2.3c0.1,0,2.2,0,2.6,2.4l0,0l0.7,17.7c-1.2,0.6-2.4,1.3-3.7,1.9c-2.6,1.2-5.2,2.2-8,2.8l-1.9-19
		c0,0-1.3-8.3,0.1-9.7c0,0,3.8-5.3,10.3-2.9c0,0-3.3-4.5-9.7-2c-0.3,0.1-0.7,0.3-1,0.5c-1.2,0.8-4.9,3.1-8.6,3.5
		c0,0-8.4,1.3-14.2-5.3c0,0,1.7,6.9,7.7,8.5C8,17.9,8.4,18,8.8,18c1.2,0.1,3.9,0.4,5.3,0.3c2.3-0.3,4.1,0.3,4.7,5.8l2.3,20.8
		c-4.7,0.7-9.5,0.4-14-1.3c4,3.3,9.3,4.7,14.4,4.4c0.3,1.9,0.6,5.2,0.6,7.8c0,2.2-0.3,4-1,4.2c0,0-6.9,2.1-6.5,7.3
		c0,0,2-1.8,4.4-2.8s4.9-0.6,7.5-0.4c2.7,0.1,6.6-0.3,9.6-3.1c-0.2,0.1-3.4,0.9-7.8-0.8c-0.6-0.3-1.7-0.4-2.2-5.3l-0.7-7.2
		c3.7-0.7,7.3-2.2,10.7-4c0.3-0.1,0.5-0.3,0.8-0.4l0.1,3.9c0,1.5-0.5,4.8-3.9,4.6c0,0-1.5,0.1-2.8-1.9c0,0-0.3,3.5,3,4.1
		c0,0,2.5,0.4,4.9-1.4c0.3-0.2,0.6-0.5,1-0.6c2-1.1,8.8-4.4,17.9-4.2c0,0,6,0,8.8,0.8C65.7,48.3,65.1,47.9,64.1,47.3z M43.9,46.7
		c0,0-2.7,1.1-3.2-1.5l-0.2-4.3c1.8-1.1,3.7-2.1,5.6-3l0.3,4.2l0,0C46.4,42.1,46.9,45.6,43.9,46.7z M57.1,44.5
		c0.3-0.1,0.5-0.1,0.8-0.2C57.5,44.5,57.2,44.5,57.1,44.5z"/>
	<path class="st0" d="M138.2,39.4c-0.7,0-1.3,0.5-1.8,1.1c-0.5,0.5-0.9,1.1-1.6,1.5c-1,0.6-2.7-0.1-3.8-0.2
		c-1.7-0.1-3.3-0.1-4.8,0.3l0,0c-0.3,0-0.4-0.1-0.4-0.5l0,0c0-0.1,0-0.2,0-0.3v-0.1v-0.1v-0.2l-0.6-5.7c0.2-0.1,0.5-0.3,0.7-0.4
		c2.7-1.5,6-2.3,8.9-1c-1.2-1.5-2.3-2.7-6.2-2.3c-1.2,0.1-2.3,0.7-3.4,1.2c-0.1,0-0.1,0.1-0.2,0.1l-0.4-3.9l0,0
		c0-0.4,0.2-0.5,0.4-0.7c0.3-0.2,4-1.2,5-1.3c0.6-0.1,1.3-0.2,2-0.1c1,0.2,1.8,0.7,2.6,1.4c0.8,0.6,1.5,1.3,2.4,1.8
		c-0.2-0.7-0.4-1.4-0.5-2.1c-0.1-0.4-0.2-0.8-0.2-1.1c-0.1-1.2,0.2-2.3,0.6-3.4c-0.6-0.1-1.1,0-1.7,0.1c-2.6,0.4-4.3,1.1-6.8,1.6
		c-0.8,0.2-2.2,0.5-3,0.6c-2.1,0.3-4.5,0.5-6.5-0.1c0.7,0.7,1.4,1.6,2,2.2c0.3,0.3,0.7,1,0.8,1.5l0.6,5.1c-2.1,1.3-4.1,2.9-6.2,4.2
		c-0.1,0.1-0.2,0.1-0.4,0.2l-1.1-9.4l0,0v-0.1v-0.2c-0.2-4.2,5.3-7.4,5.3-7.4c-2.2-0.7-4.9,1.8-4.9,1.8c-1.7,1.5-2.6,1.5-3,1.5
		c-1.5-0.1-2.7,0-2.7,0c-1.5,0.2-1.7,1.5-1.7,1.5c3.2-0.9,3.9,2.3,4,3.1v0.2l1.2,10.6c-2.2,1-4.6,1.8-6.9,2.1l-0.3-3
		c-0.5-6.7,1.7-10.8,1.7-10.8c-2.3,0.8-3.3,2.1-3.6,2.7c-0.3,0.5-0.6,1-1.1,1.3c-0.5,0.4-0.9,0.6-0.9,0.6c-1.9,1.2-4.9,0.7-4.9,0.7
		c0.6,1.3,2.2,1.4,3,1.3c0.3,0,0.7,0,1,0.1c1.2,0.4,1.6,1.5,1.7,2.2l0,0c0.1,0.3,0.1,0.6,0.1,0.7l0,0l0.4,4.3
		c-1.8-0.1-3.5-0.4-5.2-1c1.6,1.4,3.4,2.4,5.4,2.8l0.9,8.7l0,0c0,0.1,0.2,3.8-3.4,5c0,0,1.1,0.7,2.9-0.3c1-0.6,2.1-1.1,3.3-1.3
		c1.1-0.2,5.2,0.1,6.2-3.1c-0.2,0.1-5.5,2.5-6.1-0.7l-0.8-8c0.7,0,1.3,0,2-0.1c1.7-0.2,3.4-0.7,5.1-1.4l0.6,5.4l0,0
		c0,0.5-0.2,0.7-0.5,0.8c-0.1,0-0.2,0.1-0.3,0.1c-1,0.3-2,0.5-3.1,0.2c1.1,1,2.6,1.3,4,1.1s2.8-0.9,4-1.7s2.3-1.8,3.5-2.6
		c1.5-1,3.1-1.7,4.8-2.2c0.7-0.2,1.5-0.4,2.2-0.4c0.6,0,1.3,0.1,1.9,0.3c1.5,0.3,3,0.7,4.5,0.9s2.9,0.2,4.3-0.4l0,0
		C137.6,43.4,137.2,41.1,138.2,39.4z M122.9,42.8c0,0.2-0.1,0.4-0.4,0.5l0,0c-0.2,0.1-0.4,0.2-0.5,0.3c-1.7,1-3.2,2.3-4.9,3.5l0,0
		c-0.3,0.2-0.6,0-0.7-0.3l0,0l-0.6-5c0.8-0.4,1.5-0.9,2.2-1.5c1.4-1,2.8-2.2,4.2-3.2l0.5,4.9L122.9,42.8L122.9,42.8z"/>
	<path class="st0" d="M86,57.4c-0.1,0.1-0.3,0.2-0.5,0.3C85.7,57.6,85.8,57.5,86,57.4z"/>
	<path class="st0" d="M121,50.2V50l0,0C121,50.1,121,50.2,121,50.2z"/>
	<path class="st0" d="M160.5,42.1c-0.9,0.2-1.8,0.3-2.7,0c-0.8-0.2-1.4-0.7-1.9-1.3c-1.4-1.6-1.6-3.9-2-5.9s-1.1-4.1-2.8-5.5
		c-0.5-0.4-1.2-0.7-2-0.9c0.5-0.2,1-0.5,1.5-0.9c0.4-0.2,0.7-0.5,1-0.8c0.8-0.8,1.3-1.9,1.4-3c0-1.1-0.4-2.2-1.2-3
		c-0.4-0.4-0.9-0.7-1.4-1c-1.6-0.9-3.6-1.1-5.5-1s-3.6,0.5-5.5,0.7c-0.5,0.1-1.1,0.2-1.6,0.1c-0.7-0.1-1.6-0.3-2.1-0.8
		c-0.1,0.4,0.4,0.9,0.7,1.2c1.2,1.4,3.9,1.4,5.3,1.4l-0.1,21.8c0,0.1-0.5,3.3-2.7,3.9c0,0,1,0.6,2.6-0.1c0.9-0.5,1.9-0.8,3-0.9
		c1-0.1,4.6,0.3,5.7-2.3c0,0-5,1.9-5.3-0.8l0,0l-0.6-13.4c2.2-0.3,5.9,0.4,6.3,4.7c1.1,13.4,8.6,11.8,9.2,11.6
		c1.2-0.2,3.5-1.1,4.9-2.5c2-1.9,3.1-6.8,3.1-6.8C164.4,41.2,161.5,41.9,160.5,42.1z M148.1,27.1c-0.8,0.7-1.7,0.7-2.8,0.7
		c-0.3,0-0.7-0.1-1.1-0.2l-0.3-6.2c0.5-0.1,2.7-0.9,4.5,0.2c0.9,0.5,1.3,1.7,1.2,2.8C149.5,25.4,148.9,26.4,148.1,27.1z"/>
	<path class="st0" d="M71.1,89.3c-0.5,1.9-0.4,4,0.2,5.9c0.6,1.8,1.9,2.8,3.6,3.6c0.1,0-3.9,0.8-7.5,0.4c-1.1,0-6.5-0.4-11.7-3.2
		c-1.6-0.9-3.4-1.5-5.3-1.7c-0.8-0.1-1.6-0.1-2.5,0l0,0c-2.2,0.4-4.4,1.3-6.3,2.5c-1.2,0.8-2.3,1.7-3.2,2.7c0.4-2.1,1.8-4,3.5-5.4
		s3.8-2.3,6-2.8c0.1,0,0.2,0,0.3-0.1l0,0c0.3-0.1,0.7-0.1,1-0.2h-0.1l0,0c0.9-0.2,0.9-1.6,0.9-1.6c0-6.5,1.2-14.2,3.5-22.8
		c0.5-2,1.1-3.8,1.6-5.4c0-0.1,0.1-0.2,0.1-0.3c0.2-0.7,0.4-1.3,0.5-2c0.2-1.2,0.4-2.6-0.5-3.5c-0.7-0.7-1.8-0.8-2.8-0.7
		C50,55,48,56.3,45.8,57.2c-1.8,0.7-3.7,1.2-5.6,1.4c-1,0.1-2.1,0.1-3.1-0.3c-1-0.4-1.8-1.1-2-2.1c0.6,0.9,1.7,1.3,2.7,1.3
		c1.1,0,2.1-0.3,3.1-0.7c2.7-1.2,5-3,7.6-4.2c3.8-1.9,8.2-2.4,12.5-1.9c2.4,0.3,5.7,0.2,6.8,0c-0.8,0.8-2.1,1.8-2.9,2.5
		c-3.1,2.6-5.4,5.9-6.7,10C56.1,70.1,53.7,80,53.6,89c0,0.1,0,0.1,0,0.2c0,1.5,1,2,1.2,2.1l0,0c0.9,0.3,1.9,0.7,2.9,1.3
		c0,0,3.1,2,5.3,1.8c1.1-0.2,2.5-1.1,3.3-2.1c0.2-0.3,1.4-2.3,1.6-2.6c0.4-0.7,0.7-1.3,1.1-2.1c0.7-1.3,1.8-2.5,2.8-3.6
		s2.2-1.9,3.6-2.1c-0.7,0.1-2,2-2.3,2.4c-0.4,0.4-0.6,0.9-0.8,1.4C71.9,87,71.4,88.1,71.1,89.3z"/>
	<path class="st0" d="M98.6,63.3c-0.4,1.3-1.8,2-3.2,2.3c-1.3,0.3-2.8,0.4-4,1.1c-0.7,0.4-1.2,0.9-1.8,1.4c-1.3,1.3-2.3,2.8-3.2,4.4
		l0,0c-3.5,7.7-2.3,20.4-2.3,20.4c0.3,3.3,6,1.1,6,1.1c-1.2,3.1-5.3,2.5-6.4,2.6c-1.2,0.1-2.3,0.5-3.4,1c-1.8,0.9-2.9,0.1-2.9,0.1
		c3.7-0.9,3.8-4.8,3.8-4.8c-0.7-6.1-0.3-11.2,0.5-15.3l0,0c0.2-1.3-0.5-2.4-0.5-2.4L74.7,67c-1.8-2.1-3.8-1.5-4.2-1.3c0,0,0,0-0.1,0
		l0,0c-0.6,0.3-1.2,0.7-1.6,1.3c0-0.7,0.2-1.5,0.6-2c0.7-0.9,1.8-1.3,2.7-1.9c0.9-0.6,1.8-1.3,2.7-1.8c0.9-0.6,1.9-1,3-0.9
		c-0.6,0.8-0.8,1.8-0.8,2.8c0,0.4,0,0.9,0.1,1.3c0.3,0.8,1.9,4.9,5.8,8.1c0,0,0,0,0.1,0.1c1.6-4.9,3.5-7.4,3.6-7.6l0,0
		c0.2-0.5,0.4-1,0.4-1.5c0.3-1.4-0.1-2.8-1-3.8c-0.5-0.6-1.3-1.1-2-0.9c1.5-1,3.6-0.8,4.9,0.5c0.5,0.5,0.9,1.2,1.3,1.8
		c0.4,0.7,0.9,1.3,1.6,1.9C93.7,64.6,96.6,64.7,98.6,63.3z"/>
	<path class="st0" d="M121.6,57.1c-0.9-0.4-2-0.3-2.8,0.2c-0.6,0.3-1.1,0.7-1.6,1.2c-1.6,1.5-1.2,4.7-1.2,4.7l1.6,45.5L101,76.3
		l0.7,12.8c0.6,6.2,0.8,6.8,0.9,6.9l0,0c0.3,0.3,0.6,0.5,0.9,0.8c0.8,0.6,1.6,1.2,2.5,1.5s2,0.2,2.8-0.3c0.2-0.2,0.4-0.4,0.5-0.6
		l0,0c-0.1,1.1-1,2.1-2.1,2.6c-1.1,0.4-2.3,0.3-3.4-0.1s-2.1-1-3.1-1.6c-0.5-0.3-1-0.6-1.6-1c-0.9-0.5-1.8-1.1-2.8-1.4
		s-2.2-0.2-3.1,0.3c0.2-0.6,0.7-1,1.3-1.3c1.2-0.7,2.7-1,4-0.9l0,0c0.5,0,0.5-0.8,0.5-0.8L97.5,73l0,0c-0.1-0.5-0.2-1-0.6-1.3
		s-1-0.3-1.5-0.2c-1.7,0.4-3.1,2.1-3.2,3.9c-0.5-1.3-0.4-2.7,0.1-4s1.5-2.4,2.8-3c1-0.5,2.1-0.6,3.2-0.9c2.1-0.6,4.1-1.8,5.5-3.5
		c0.4,0.4,0.4,1.2,0.1,1.8c-0.3,0.6-0.7,1-1.1,1.5c-0.4,0.7-0.7,1.4-0.8,2.2c0,0.1,0,0.1,0,0.2c0,3.8,12,25.1,12,25.1l-1.6-32.3
		c-0.8,0.4-1.8,0.6-2.7,0.4c-1-0.2-2-1.1-2.3-2.2l0,0c0.1,0.3,0.3,0.4,0.5,0.6c0.8,0.4,1.8,0.3,2.6-0.1c0.8-0.4,1.4-1.1,2-1.9
		c0.6-0.8,1.2-1.7,2-2.4c1.6-1.4,3.9-1.8,5.8-0.9C120.8,56.2,121.3,56.6,121.6,57.1z"/>
	<path class="st0" d="M151.2,51.5c-0.5,0.8-1.2,1.5-2,2c-0.9,0.5-2,0.6-2.9,1.1c-0.8,0.4-1.5,1-1.7,1.8l0,0l1.7,46l-16.7-39.5
		l1.1,30c0.9,0.4,1.7,1,2.6,1.2c1.4,0.3,2.9-0.5,3.5-1.7c0,1.3-0.6,2.7-1.6,3.5c-1.8,1.4-4.4,0.1-4.4,0.1c-1.6-1.1-2.8-1-2.8-1
		c-2.6-0.3-4.2,2.3-4.2,2.3c0.2-2.1,1.8-3.9,3.8-4.5l-1.4-35.4c-0.2-0.5-0.1-1.2-0.4-1.6c-0.3-0.4-0.9-0.3-1.4-0.1
		c-0.6,0.3-1,0.8-1.3,1.4c0.1-1.1,0.5-2.1,1.1-3c0.3-0.4,0.6-0.8,0.9-1c0.6-0.5,1.5-0.7,2.3-0.9c0.8-0.1,1.6-0.2,2.4-0.5
		s1.5-0.9,1.7-1.6c0.1,0.7,0,1.4-0.4,2.1c-0.2,0.4-0.5,0.7-0.8,1.1c-0.1,0.2-0.3,0.4-0.3,0.7l12.4,31.8l-0.8-29.1
		c-0.3-1.6-0.9-3.2-2.2-4.2s-3.4-1.3-4.6-0.2c0.8-1.6,2-2.1,3.4-2.4c3.1-0.6,6,2.2,9.1,2c1.7-0.1,3.2-0.9,3.9-2.8
		C151.8,49.7,151.6,50.7,151.2,51.5z"/>
	<path class="st0" d="M101.8,25.2c0,0-6.3-5-19.5-2.1c-1.3,0.3-3.4,0.7-5.9,0.7l-3.2-23l-0.1,0.5V0c0,0.2-3.3,12.5-5.6,21.2
		c-1.7-1.2-3.3-2.9-4.7-5.3c0,0.1,0.3,4.4,4,7.6c-0.7,2.6-1.3,4.7-1.5,5.5c-0.1,0.5-0.4,1-0.8,1.2c-0.4,0.3-0.9,0.5-1.7,0.3
		c0,0,2.2,4,8.7,3.3c0,0-3.4-1.1-3.4-4.3c0-0.4,0.1-0.7,0.2-1.1l0.9-3.4c1.2,0.6,2.7,1.2,4.5,1.5c1,7.7,2,16.2,2.4,18.9l0,0
		c-0.3,1.2-1.1,2.7-3.1,3.3c0,0,1.1,0.7,2.8-0.3c1-0.6,2.1-1,3.2-1.2c1-0.2,5.1,0.1,6-3c-0.2,0.1-4.6,2.1-5.7-0.1l0,0l-2.4-17.4
		c1.5,0,2.9-0.1,4.4-0.4c1.3-0.3,3.1-0.6,5-0.8l0.9,24.8l-0.4,1.9c-1.1,0.9-2.5,1.4-3.9,1.6c0.5,0.8,1.5,1.2,2.4,1.2
		s1.8-0.5,2.7-0.4c1.2,0.2,2,1.3,3.1,2c1.8,1.1,4.4,0.3,5.3-1.6c-0.5,0.5-1.3,0.5-2,0.3s-1.2-0.7-1.7-1.1c-1.2-0.9-2.1-2.4-2.3-3.8
		l0,0l-0.9-25.2c3.5-0.3,6.7-0.1,7.7,1.3c0,0,0.6,0.6,0.6,2.2c0,0.7,0.1,1.4,0.4,2c0.3,0.7,0.7,1.4,1.5,1.5
		C99.7,32.2,98.7,27.1,101.8,25.2z M70,22.5l2.2-8.7c0.2,1.9,0.7,5.6,1.2,9.7C72.3,23.4,71.1,23,70,22.5z"/>
</g>
</svg>
