<?xml version="1.0" encoding="utf-8"?>
<!-- Generator: Adobe Illustrator 19.2.0, SVG Export Plug-In . SVG Version: 6.00 Build 0)  -->
<svg version="1.1" id="Layer_1" xmlns="http://www.w3.org/2000/svg" xmlns:xlink="http://www.w3.org/1999/xlink" x="0px" y="0px"
	 viewBox="0 0 168.4 65.6" style="enable-background:new 0 0 168.4 65.6;" xml:space="preserve">
<style type="text/css">
	.st0{display:none;}
	.st1{display:inline;}
	.st2{fill:#FFFFFF;}
</style>
<g id="Layer_1_1_" class="st0">
	<g class="st1">
		<path d="M62.6,25.7c-0.4,0.1-0.6,0.1-0.7,0.1C62,25.7,62.2,25.7,62.6,25.7z"/>
		<path d="M54.4,16.7c0-0.2-0.1-0.4-0.1-0.6"/>
		<path d="M50.2,10.2c-0.1,0.3,0,0.6,0.1,0.9s0.4,0.5,0.6,0.7c0.3,0.3,0.5,0.5,0.8,0.7c0.2,0.1,0.3,0.2,0.5,0.3"/>
		<path d="M54.3,16.1L54.3,16.1c-0.1-0.4-0.2-0.7-0.3-1l0,0c-0.1-0.2-0.1-0.4-0.2-0.6c-0.3-0.7-0.9-1.3-1.5-1.8
			c0.1,0,0.2,0.1,0.3,0.2c0.6,0.4,1.1,1,1.4,1.7c0,0.1,0.1,0.2,0.1,0.3l0,0C54.1,15.3,54.2,15.7,54.3,16.1z"/>
		<path d="M67.6,28.1c-4.1-3.3-2.2-6.8-2.2-6.8c-1,0.1-2.1,2.4-2.1,2.5c-0.8,1.4-2,1.9-2.8,2.1C60.1,26,59.9,26,59.8,26l0,0
			c0,0-3.8,0.6-4.3-1.4l-0.3-5.1c2.9-0.9,6-1.1,8.7,0.1l0.2-0.1c-1.4-1.5-2.5-2.7-7.1-2.6c-0.7,0-1.3,0.2-1.9,0.3l-0.2-3.1l0,0
			c0-0.1,0.1-0.3,0.2-0.4c0.1-0.1,0.3-0.2,0.4-0.2c1.2-0.4,2.3-0.7,3.6-0.9c0.3-0.1,0.7-0.1,1.1,0c0.8,0.1,1.4,0.8,2,1.3
			c0.6,0.6,1.3,1.1,2.2,1.1c-1-0.9-1.4-2.3-1.3-3.6s0.6-2.6,1.3-3.7c0,0-1.2,0.1-2.9,1.1c0,0-4.3,2.8-8.9,1.8c0,0-1.7-0.1-3.2-1.3
			c0,0-0.4,1,1.3,2.3c0.1,0,0.1,0.1,0.2,0.2c0.1,0.1,0.2,0.1,0.3,0.2c0.6,0.5,1,1.1,1.3,1.9c0,0.1,0.1,0.2,0.1,0.4l0,0
			c0,0.1,0,0.2,0,0.2l0.3,3.8c-1.6,0.5-3.1,1.2-4.5,1.9L47.9,6L48,5.8c0,0,2.1-3.4,5-4.5c0,0-1.5-0.7-3.8,0.6c0,0-3.2,1.8-6.9,1.9
			c0,0-2-0.1-2.7-0.5c0,0,0.1,1.5,3.1,1.9c0,0,1.8,0,2.2,2l0,0l0.6,14.6c-1,0.5-2,1-3,1.5c-2.1,1-4.3,1.8-6.6,2.3L34.3,10
			c0,0-1.1-6.8,0.1-8c0,0,3.1-4.4,8.5-2.4c0,0-2.7-3.7-8-1.6c-0.3,0.1-0.6,0.3-0.8,0.4c-1,0.7-4.1,2.5-7,2.8c0,0-6.9,1.1-11.7-4.3
			c0,0,1.4,5.7,6.3,7C22,4,22.3,4,22.6,4.1c1,0.1,3.2,0.4,4.4,0.2c1.9-0.2,3.4,0.2,3.9,4.8l1.9,17.1c-3.9,0.5-7.8,0.3-11.5-1
			c3.3,2.7,7.6,3.8,11.8,3.6l0,0c0.4,2.9,1.1,9.5-0.3,9.9c0,0-5.7,1.7-5.4,6c0,0,1.7-1.5,3.6-2.3c1.9-0.8,4.1-0.5,6.2-0.4
			c2.2,0.1,5.4-0.2,7.9-2.6c0,0-2.7,0.8-6.4-0.7c-0.5-0.2-1.4-0.4-1.8-4.4l-0.6-5.9c3.1-0.6,6-1.8,8.8-3.3c0.2-0.1,0.4-0.2,0.7-0.4
			l0.1,3.2c0,1.3-0.4,4-3.2,3.8c0,0-1.3,0.1-2.3-1.6c0,0-0.3,2.9,2.4,3.4c0,0,2,0.3,4.1-1.2c0.3-0.2,0.5-0.4,0.8-0.5
			c1.6-0.9,7.2-3.6,14.7-3.5c0,0,4.9,0,7.2,0.7C68.9,29,68.4,28.6,67.6,28.1z M51,27.6c0,0-2.2,0.9-2.6-1.2l-0.1-3.6
			c1.5-0.9,3-1.8,4.6-2.5l0.2,3.4l0,0C53,23.8,53.4,26.7,51,27.6z"/>
		<path d="M98.6,9.9c0,0-5.2-4.1-16-1.7c-1.1,0.2-2.8,0.6-4.8,0.6l-2.6-18.9v0.4v-1.1c0,0.1-2.7,10.3-4.6,17.4
			c-1.4-1-2.7-2.4-3.8-4.4c0,0.1,0.2,3.6,3.3,6.2c-0.6,2.2-1,3.8-1.2,4.5c-0.1,0.4-0.3,0.8-0.7,1c-0.3,0.2-0.8,0.4-1.4,0.2
			c0,0,1.8,3.3,7.2,2.7c0,0-2.8-0.9-2.8-3.5c0-0.3,0.1-0.6,0.1-0.9L72,9.6c1,0.5,2.2,1,3.7,1.2c0.8,6.3,1.7,13.3,2,15.5l0,0
			c-0.2,1-0.9,2.2-2.6,2.7c0,0,0.9,0.6,2.3-0.2c0.8-0.5,1.7-0.8,2.6-1s4.2,0.1,4.9-2.4c-0.1,0.1-3.8,1.7-4.7-0.1l0,0l-2-14.3
			c1.2,0,2.4-0.1,3.6-0.3c1.1-0.2,2.5-0.5,4.1-0.7l0.7,20.7l0,0c0,0,0.4,0.9-0.5,1.6c-0.1,0.1,3.6-0.5,3.3-0.6
			c-0.3,0.1-0.4,0.1-0.1,0c0,0,0.1-0.2,0-0.5L88.5,9.8c2.9-0.2,5.5-0.1,6.3,1c0,0,0.5,0.5,0.5,1.8c0,0.6,0.1,1.1,0.3,1.6
			c0.2,0.6,0.6,1.1,1.2,1.2C96.8,15.7,96,11.5,98.6,9.9z M72.4,7.7l1.8-7.1c0.2,1.6,0.6,4.6,1,8C74.3,8.4,73.3,8.1,72.4,7.7z"/>
		<path d="M54.3,16.1L54.3,16.1c-0.1-0.4-0.2-0.7-0.3-1l0,0V15C54.1,15.3,54.2,15.7,54.3,16.1z"/>
		<path d="M128.4,21.6c-0.6,0-1.1,0.4-1.5,0.9c-0.4,0.4-0.8,0.9-1.3,1.2c-0.9,0.5-2.2,0-3.2-0.1c-1.4-0.1-2.7,0-4,0.2l0,0
			c-0.3,0-0.3-0.1-0.4-0.4l0,0c0-0.1,0-0.1,0-0.2v-0.1V23v-0.1l-0.5-4.7c0.2-0.1,0.4-0.2,0.6-0.3c2.2-1.2,5-1.9,7.3-0.8
			c-1-1.2-1.9-2.2-5.1-1.9c-1,0.1-1.9,0.6-2.8,1c-0.1,0-0.1,0-0.2,0.1l-0.3-3.2l0,0c0-0.3,0.2-0.4,0.4-0.5c0.2-0.1,3.3-1,4.1-1.1
			c0.5-0.1,1.1-0.1,1.6-0.1c0.8,0.1,1.5,0.6,2.1,1.1s1.2,1.1,1.9,1.5c-0.1-0.6-0.3-1.2-0.4-1.7c-0.1-0.3-0.2-0.6-0.2-0.9
			c-0.1-1,0.2-1.9,0.5-2.8c-0.5-0.1-0.9,0-1.4,0c-2.1,0.3-3.5,0.9-5.6,1.3c-0.6,0.1-1.8,0.4-2.5,0.5c-1.7,0.2-3.7,0.4-5.3-0.1
			c0.6,0.6,1.1,1.3,1.6,1.8c0.3,0.3,0.6,0.8,0.7,1.3l0.5,4.2c-1.7,1.1-3.3,2.4-5.1,3.4c-0.1,0.1-0.2,0.1-0.3,0.2l-0.9-7.7l0,0v-0.1
			v-0.2c-0.2-3.5,4.4-6.1,4.4-6.1c-1.8-0.6-4,1.5-4,1.5c-1.4,1.3-2.2,1.2-2.4,1.2c-1.3-0.1-2.2,0-2.2,0c-1.2,0.2-1.4,1.2-1.4,1.2
			c2.6-0.7,3.2,1.9,3.3,2.5v0.1l1,8.7c-1.8,0.9-3.8,1.5-5.7,1.7l-0.2-2.5c-0.4-5.5,1.4-8.9,1.4-8.9c-1.9,0.7-2.7,1.7-3,2.2
			c-0.2,0.4-0.5,0.8-0.9,1.1s-0.8,0.5-0.8,0.5c-1.6,0.9-4,0.6-4,0.6c0.5,1,1.8,1.1,2.5,1.1c0.3,0,0.6,0,0.8,0.1
			c1,0.3,1.3,1.2,1.4,1.8l0,0c0.1,0.3,0.1,0.5,0.1,0.5l0,0l0.3,3.5c-1.4,0-2.9-0.3-4.3-0.8c1.3,1.2,2.8,1.9,4.4,2.3l0.7,7.2l0,0
			c0,0.1,0.1,3.2-2.8,4.1c0,0,0.9,0.6,2.4-0.2c0.8-0.5,1.7-0.9,2.7-1c0.9-0.2,4.3,0.1,5.1-2.5c-0.2,0.1-4.5,2.1-5-0.6l-0.6-6.6
			c0.5,0,1.1,0,1.6-0.1c1.4-0.2,2.8-0.6,4.2-1.1l0.5,4.4l0,0c0,0.4-0.1,0.5-0.4,0.6c-0.1,0-0.1,0-0.2,0.1c-0.8,0.3-1.7,0.4-2.5,0.2
			c0.9,0.8,2.1,1.1,3.3,0.9s2.3-0.8,3.2-1.4c1-0.7,1.9-1.5,2.9-2.1c1.2-0.8,2.5-1.4,3.9-1.8c0.6-0.2,1.2-0.3,1.8-0.3
			c0.5,0,1.1,0.1,1.6,0.2c1.2,0.3,2.4,0.6,3.7,0.7c1.2,0.1,2.4,0.1,3.6-0.3l0,0C128,24.9,127.6,23,128.4,21.6z M115.8,24.4
			c0,0.2-0.1,0.3-0.3,0.4l0,0c-0.1,0.1-0.3,0.2-0.4,0.2c-1.4,0.8-2.7,1.9-4,2.9l0,0c-0.3,0.2-0.5,0-0.6-0.3l0,0l-0.5-4.1
			c0.6-0.4,1.2-0.8,1.8-1.2c1.2-0.8,2.3-1.8,3.5-2.7l0.4,4.1L115.8,24.4L115.8,24.4z"/>
		<path d="M85.5,36.4c-0.1,0.1-0.2,0.2-0.4,0.3C85.3,36.5,85.4,36.4,85.5,36.4z"/>
		<path d="M95.3,28l-0.1-0.5C95.3,27.8,95.3,28,95.3,28z"/>
		<path d="M114.3,30.5L114.3,30.5L114.3,30.5C114.3,30.4,114.3,30.4,114.3,30.5z"/>
		<path d="M146.8,23.8c-0.7,0.2-1.5,0.2-2.2,0c-0.6-0.2-1.2-0.6-1.6-1c-1.2-1.3-1.3-3.2-1.6-4.8c-0.3-1.7-0.9-3.4-2.3-4.5
			c-0.4-0.3-0.9-0.6-1.6-0.7c0.4-0.2,0.9-0.4,1.3-0.7c0.3-0.2,0.6-0.4,0.9-0.7c0.7-0.6,1.1-1.5,1.1-2.5c0-0.9-0.3-1.8-1-2.5
			c-0.3-0.3-0.7-0.6-1.1-0.8c-1.3-0.7-3-0.9-4.5-0.8c-1.6,0.1-3,0.4-4.5,0.6c-0.4,0.1-0.9,0.1-1.4,0.1c-0.6-0.1-1.3-0.2-1.7-0.6
			c0,0.3,0.3,0.7,0.5,1c1,1.2,3.2,1.2,4.4,1.2L131.4,25c0,0.1-0.4,2.7-2.2,3.2c0,0,0.8,0.5,2.1-0.1c0.8-0.4,1.6-0.6,2.5-0.8
			c0.8-0.1,3.8,0.3,4.7-1.9c0,0-4.1,1.6-4.4-0.7l0,0l-0.5-11c1.8-0.2,4.9,0.4,5.2,3.8c0.9,11,7,9.7,7.6,9.6c1-0.2,2.9-0.9,4-2
			c1.6-1.5,2.5-5.6,2.5-5.6C149.9,23.1,147.6,23.6,146.8,23.8z M136.6,11.5c-0.7,0.6-1.4,0.6-2.3,0.6c-0.3,0-0.6-0.1-0.9-0.1
			l-0.2-5.1c0.4-0.1,2.2-0.7,3.7,0.2c0.8,0.4,1,1.4,1,2.3C137.7,10.1,137.3,10.9,136.6,11.5z"/>
		<path d="M73.3,62.6c-0.4,1.6-0.4,3.3,0.2,4.9c0.5,1.4,1.5,2.3,2.9,3c0,0-3.2,0.7-6.2,0.3c-0.9,0-5.3-0.3-9.6-2.7
			c-1.3-0.7-2.8-1.2-4.3-1.4c-0.6-0.1-1.3-0.1-2.1,0l0,0c-1.8,0.3-3.6,1-5.2,2.1c-1,0.6-1.9,1.4-2.7,2.2c0.4-1.7,1.4-3.3,2.9-4.4
			c1.4-1.1,3.2-1.9,4.9-2.3c0.1,0,0.1,0,0.2,0l0,0c0.3-0.1,0.6-0.1,0.9-0.2l0,0l0,0c0.7-0.2,0.7-1.3,0.7-1.3c0-5.4,1-11.7,2.9-18.7
			c0.4-1.6,0.9-3.1,1.3-4.4c0-0.1,0.1-0.2,0.1-0.2c0.2-0.6,0.3-1.1,0.4-1.6c0.2-1,0.3-2.1-0.4-2.9c-0.6-0.6-1.5-0.7-2.3-0.6
			c-1.9,0.2-3.6,1.3-5.4,2.1c-1.5,0.6-3,1-4.6,1.1c-0.8,0.1-1.7,0.1-2.5-0.2c-0.8-0.3-1.5-0.9-1.6-1.7c0.5,0.7,1.4,1.1,2.3,1.1
			s1.7-0.3,2.5-0.6c2.2-0.9,4.1-2.4,6.3-3.5c3.1-1.5,6.8-1.9,10.3-1.5c2,0.2,4.7,0.2,5.6,0c-0.7,0.6-1.7,1.5-2.4,2.1
			c-2.5,2.2-4.5,4.8-5.5,8.2c-1.7,5.7-3.7,13.8-3.8,21.2c0,0.1,0,0.1,0,0.2c0,1.2,0.8,1.6,1,1.7l0,0c0.8,0.2,1.6,0.6,2.4,1.1
			c0,0,2.6,1.7,4.3,1.5c0.9-0.2,2.1-0.9,2.7-1.7c0.2-0.2,1.2-1.9,1.3-2.2c0.3-0.6,0.6-1.1,0.9-1.7c0.6-1,1.5-2.1,2.3-3
			c0.8-0.9,1.8-1.6,3-1.7c-0.5,0.1-1.7,1.7-1.9,2c-0.3,0.4-0.5,0.8-0.7,1.2C74,60.7,73.6,61.6,73.3,62.6z"/>
		<path d="M57.1,66.1c-0.3,0.1-0.6,0.1-0.9,0.2C56.2,66.3,56.6,66.2,57.1,66.1L57.1,66.1z"/>
		<path d="M95.9,41.2c-0.4,1.1-1.5,1.6-2.6,1.9S91,43.4,90,44c-0.5,0.3-1,0.7-1.4,1.2c-1,1.1-1.9,2.3-2.6,3.6l0,0
			c-2.9,6.3-1.9,16.8-1.9,16.8c0.3,2.7,4.9,0.9,4.9,0.9c-1,2.6-4.4,2.1-5.3,2.2c-1,0.1-1.9,0.4-2.8,0.9c-1.5,0.7-2.4,0.1-2.4,0.1
			c3.1-0.8,3.1-3.9,3.1-3.9c-0.5-5-0.2-9.2,0.4-12.6l0,0c0.2-1.1-0.4-2-0.4-2l-5.3-6.7c-1.4-1.8-3.1-1.2-3.5-1.1l0,0l0,0
			c-0.5,0.3-1,0.6-1.3,1c0-0.6,0.1-1.2,0.5-1.7c0.6-0.7,1.5-1.1,2.2-1.6c0.8-0.5,1.4-1,2.2-1.5s1.6-0.8,2.5-0.7
			c-0.5,0.6-0.7,1.5-0.7,2.3c0,0.4,0,0.7,0.1,1.1c0.2,0.7,1.6,4,4.7,6.6c0,0,0,0,0.1,0.1c1.3-4,2.9-6.1,3-6.2l0,0
			c0.1-0.4,0.3-0.8,0.4-1.2c0.2-1.1-0.1-2.3-0.8-3.2c-0.4-0.5-1-0.9-1.7-0.8c1.3-0.8,2.9-0.6,4,0.4c0.4,0.4,0.7,1,1.1,1.5
			c0.4,0.6,0.8,1.1,1.3,1.5C91.9,42.3,94.3,42.4,95.9,41.2z"/>
		<path d="M114.8,36.2c-0.7-0.3-1.6-0.2-2.3,0.1c-0.5,0.2-0.9,0.6-1.3,1c-1.3,1.3-1,3.9-1,3.9l1.3,37.4L97.8,52l0.6,10.5
			c0.5,5.1,0.7,5.6,0.7,5.6l0,0c0.3,0.2,0.5,0.4,0.8,0.6c0.6,0.5,1.3,1,2.1,1.2c0.8,0.2,1.7,0.2,2.3-0.3c0.2-0.1,0.4-0.3,0.4-0.5
			l0,0c-0.1,0.9-0.8,1.8-1.7,2.1s-1.9,0.2-2.8,0c-0.9-0.3-1.7-0.8-2.5-1.3c-0.4-0.3-0.9-0.5-1.3-0.8c-0.7-0.4-1.5-0.9-2.3-1.1
			s-1.8-0.2-2.5,0.3c0.2-0.5,0.6-0.8,1-1.1c1-0.6,2.2-0.8,3.3-0.7l0,0c0.4,0,0.4-0.7,0.4-0.7l-1.1-16.6l0,0c-0.1-0.4-0.2-0.8-0.5-1
			c-0.3-0.3-0.8-0.3-1.3-0.2c-1.4,0.4-2.6,1.7-2.6,3.2c-0.4-1.1-0.4-2.2,0-3.3s1.2-1.9,2.3-2.4c0.8-0.4,1.7-0.5,2.6-0.8
			c1.8-0.5,3.4-1.5,4.6-2.9c0.4,0.4,0.3,1,0.1,1.4c-0.2,0.5-0.6,0.8-0.9,1.3c-0.4,0.5-0.6,1.2-0.6,1.8c0,0.1,0,0.1,0,0.2
			c0,3.1,9.8,20.6,9.8,20.6l-1.3-26.6c-0.7,0.4-1.5,0.5-2.2,0.4c-0.9-0.2-1.7-0.9-1.9-1.8l0,0c0.1,0.2,0.3,0.4,0.4,0.5
			c0.7,0.3,1.5,0.2,2.1-0.1c0.7-0.4,1.2-0.9,1.7-1.5c0.5-0.7,1-1.4,1.6-1.9c1.3-1.2,3.2-1.5,4.7-0.8
			C114.1,35.4,114.6,35.7,114.8,36.2z"/>
		<path d="M139.1,31.6c-0.4,0.7-1,1.3-1.7,1.6c-0.8,0.4-1.6,0.5-2.4,0.9c-0.6,0.3-1.2,0.8-1.4,1.5l0,0l1.4,37.8L121.3,41l0.9,24.6
			c0.7,0.3,1.4,0.8,2.2,1c1.1,0.2,2.4-0.4,2.9-1.4c0,1.1-0.5,2.2-1.3,2.9c-1.5,1.2-3.6,0.1-3.6,0.1c-1.3-0.9-2.3-0.8-2.3-0.8
			c-2.1-0.2-3.4,1.9-3.4,1.9c0.2-1.7,1.5-3.2,3.1-3.7l-1.2-29.1c-0.1-0.4,0-1-0.4-1.3c-0.3-0.3-0.8-0.3-1.1-0.1
			c-0.5,0.2-0.9,0.7-1.1,1.1c0.1-0.9,0.4-1.7,0.9-2.5c0.2-0.3,0.5-0.6,0.8-0.8c0.5-0.4,1.2-0.6,1.9-0.7c0.7-0.1,1.3-0.2,2-0.4
			c0.6-0.3,1.2-0.7,1.4-1.3c0.1,0.6,0,1.2-0.3,1.7c-0.2,0.3-0.4,0.6-0.7,0.9c-0.1,0.2-0.2,0.4-0.3,0.6l10.2,26.1l-0.7-23.9
			c-0.2-1.3-0.7-2.6-1.8-3.4c-1-0.8-2.8-1-3.7-0.1c0.7-1.3,1.7-1.7,2.8-2c2.5-0.5,4.9,1.8,7.5,1.6c1.4-0.1,2.6-0.8,3.2-2.3
			C139.7,30,139.5,30.9,139.1,31.6z"/>
		<path d="M131.1,72C131.1,72,131.1,72.1,131.1,72C131,72.1,131,72,131.1,72L131.1,72z"/>
		<path d="M86.2,32.2c-0.9,0.7-2,1.2-3.2,1.3c0.4,0.6,1.2,1,2,1s1.5-0.4,2.2-0.3c1,0.1,1.7,1.1,2.5,1.6c1.5,0.9,3.6,0.2,4.4-1.3
			c-0.4,0.4-1.2,0.4-1.7,0.3c-0.5-0.1-1-0.5-1.4-0.9c-1-0.8-1.7-1.9-1.9-3.2c-0.7,0.1-1.8-0.4-2.7-0.1L86.2,32.2z"/>
	</g>
</g>
<g id="Layer_2">
	<g>
		<path class="st2" d="M8.6,54.8V35.4H5v19.4H0.3V10.6H5v20h3.8V10.7h4.5v44.2H8.6V54.8z"/>
		<path class="st2" d="M16.5,54.8V10.6h10.7v4.5H21v14.6h4.3v4.5H21v15.8h6.1v4.5H16.5V54.8z"/>
		<path class="st2" d="M38.2,54.8l-0.5-8.5h-3.7l-0.7,8.5h-4.1l4.4-44.2h5l4.4,44.2H38.2z M36.2,21.6l-1.7,20h2.9L36.2,21.6z"/>
		<path class="st2" d="M51.5,15.5v39.4H47V15.5h-4.1v-4.8h12.7v4.8H51.5z"/>
		<path class="st2" d="M66.4,54.8V35.4h-3.8v19.4h-4.7V10.6h4.7v20h3.8V10.7h4.5v44.2h-4.5V54.8z"/>
		<path class="st2" d="M74.2,54.8V10.6h10.7v4.5h-6.1v14.6h4.3v4.5h-4.3v15.8h6.1v4.5H74.2V54.8z"/>
		<path class="st2" d="M98.1,54.9c-1.5,0-2.2-2.7-2.2-5.4V37.8c0-1.4-0.6-2.2-1.7-2.2h-1.8v19.3h-4.7V10.7h6.8c2.6,0,5.9,1.4,5.9,7
			v10.7c0,2.3-0.9,3.9-2.6,5c1.7,1.1,2.7,2.7,2.7,5v10.7c0,2,0.2,3.4,0.7,4.5v1.2C101.2,54.9,98.1,54.9,98.1,54.9z M95.6,17.4
			c0-1.5-0.5-2.1-1.4-2.1h-2v15.7H94c1,0,1.6-0.7,1.6-2.3C95.6,28.7,95.6,17.4,95.6,17.4z"/>
		<path class="st2" d="M110.7,54.8V10.6h4.5v39.6h5.9v4.5h-10.4V54.8z"/>
		<path class="st2" d="M129.7,37.5v17.3h-4.5V37.5l-4.7-26.9h4.4l2.8,19.5l2.8-19.5h4.4L129.7,37.5z"/>
		<path class="st2" d="M147.5,54.8l-5.2-22.2l-1.1-6.4v28.6h-4.1V10.6h4.7l4.3,22.2l1,6.4V10.7h4.1v44.2h-3.7V54.8z"/>
		<path class="st2" d="M164.4,54.8l-5.2-22.2l-1.1-6.4v28.6h-4.1V10.6h4.7l4.3,22.2l1,6.4V10.7h4.1v44.2h-3.7V54.8z"/>
	</g>
</g>
</svg>
