<?xml version="1.0" encoding="utf-8"?>
<!-- Generator: Adobe Illustrator 19.1.0, SVG Export Plug-In . SVG Version: 6.00 Build 0)  -->
<!DOCTYPE svg PUBLIC "-//W3C//DTD SVG 1.1//EN" "http://www.w3.org/Graphics/SVG/1.1/DTD/svg11.dtd">
<svg version="1.1" id="Layer_1" xmlns="http://www.w3.org/2000/svg" xmlns:xlink="http://www.w3.org/1999/xlink" x="0px" y="0px"
	 viewBox="-254.1 356.7 146.8 96" style="enable-background:new -254.1 356.7 146.8 96;" xml:space="preserve">
<style type="text/css">
	.st0{fill:#231F20;}
</style>
<g>
	<path class="st0" d="M-202,396.5c-0.4,0.1-0.6,0.1-0.7,0.1C-202.5,396.5-202.3,396.5-202,396.5z"/>
	<path class="st0" d="M-210.1,387.5c0-0.2-0.1-0.4-0.1-0.6"/>
	<path class="st0" d="M-214.3,381c-0.1,0.3,0,0.6,0.1,0.9c0.1,0.3,0.4,0.5,0.6,0.7c0.3,0.3,0.5,0.5,0.8,0.7c0.2,0.1,0.3,0.2,0.5,0.3
		"/>
	<path class="st0" d="M-210.2,386.9l-0.1,0c0-0.4-0.1-0.7-0.2-1l0,0c-0.1-0.2-0.1-0.4-0.2-0.6c-0.3-0.7-0.9-1.3-1.5-1.8
		c0.1,0,0.2,0.1,0.3,0.2c0.6,0.4,1.1,1,1.4,1.7c0,0.1,0.1,0.2,0.1,0.3l0,0C-210.4,386.1-210.3,386.5-210.2,386.9z"/>
	<path class="st0" d="M-196.9,398.9c-4.1-3.3-2.2-6.8-2.2-6.8c-1,0.1-2.1,2.4-2.1,2.5c-0.8,1.4-2,1.9-2.8,2.1
		c-0.4,0.1-0.6,0.1-0.7,0.1c0,0,0,0,0,0s-3.8,0.6-4.3-1.4l-0.3-5.1c2.9-0.9,6-1.1,8.7,0.1l0.2-0.1c-1.4-1.5-2.5-2.7-7.1-2.6
		c-0.7,0-1.3,0.2-1.9,0.3l-0.2-3.1l0,0c0-0.1,0.1-0.3,0.2-0.4c0.1-0.1,0.3-0.2,0.4-0.2c1.2-0.4,2.3-0.7,3.6-0.9
		c0.3-0.1,0.7-0.1,1.1,0c0.8,0.1,1.4,0.8,2,1.3c0.6,0.6,1.3,1.1,2.2,1.1c-1-0.9-1.4-2.3-1.3-3.6c0.1-1.3,0.6-2.6,1.3-3.7
		c0,0-1.2,0.1-2.9,1.1c0,0-4.3,2.8-8.9,1.8c0,0-1.7-0.1-3.2-1.3c0,0-0.4,1,1.3,2.3c0.1,0,0.1,0.1,0.2,0.2c0.1,0.1,0.2,0.1,0.3,0.2
		c0.6,0.5,1,1.1,1.3,1.9c0,0.1,0.1,0.2,0.1,0.4l0,0c0,0.1,0,0.2,0,0.2l0.3,3.8c-1.6,0.5-3.1,1.2-4.5,1.9l-0.5-14.2l0.1-0.2
		c0,0,2.1-3.4,5-4.5c0,0-1.5-0.7-3.8,0.6c0,0-3.2,1.8-6.9,1.9c0,0-2-0.1-2.7-0.5c0,0,0.1,1.5,3.1,1.9c0,0,1.8,0,2.2,2l0,0l0.6,14.6
		c-1,0.5-2,1-3,1.5c-2.1,1-4.3,1.8-6.6,2.3l-1.6-15.6c0,0-1.1-6.8,0.1-8c0,0,3.1-4.4,8.5-2.4c0,0-2.7-3.7-8-1.6
		c-0.3,0.1-0.6,0.3-0.8,0.4c-1,0.7-4.1,2.5-7,2.8c0,0-6.9,1.1-11.7-4.3c0,0,1.4,5.7,6.3,7c0.3,0.1,0.6,0.1,0.9,0.2
		c1,0.1,3.2,0.4,4.4,0.2c1.9-0.2,3.4,0.2,3.9,4.8l1.9,17.1c-3.9,0.5-7.8,0.3-11.5-1c3.3,2.7,7.6,3.8,11.8,3.6c0,0,0,0,0,0
		c0.4,2.9,1.1,9.5-0.3,9.9c0,0-5.7,1.7-5.4,6c0,0,1.7-1.5,3.6-2.3c1.9-0.8,4.1-0.5,6.2-0.4c2.2,0.1,5.4-0.2,7.9-2.6
		c0,0-2.7,0.8-6.4-0.7c-0.5-0.2-1.4-0.4-1.8-4.4l-0.6-5.9c3.1-0.6,6-1.8,8.8-3.3c0.2-0.1,0.4-0.2,0.7-0.4l0.1,3.2
		c0,1.3-0.4,4-3.2,3.8c0,0-1.3,0.1-2.3-1.6c0,0-0.3,2.9,2.4,3.4c0,0,2,0.3,4.1-1.2c0.3-0.2,0.5-0.4,0.8-0.5
		c1.6-0.9,7.2-3.6,14.7-3.5c0,0,4.9,0,7.2,0.7C-195.6,399.8-196.1,399.4-196.9,398.9z M-213.5,398.4c0,0-2.2,0.9-2.6-1.2l-0.1-3.6
		c1.5-0.9,3-1.8,4.6-2.5l0.2,3.4l0,0C-211.5,394.6-211.1,397.5-213.5,398.4z"/>
	<path class="st0" d="M-165.9,380.7c0,0-5.2-4.1-16-1.7c-1.1,0.2-2.8,0.6-4.8,0.6l-2.6-18.9l0,0.4l0-1.1c0,0.1-2.7,10.3-4.6,17.4
		c-1.4-1-2.7-2.4-3.8-4.4c0,0.1,0.2,3.6,3.3,6.2c-0.6,2.2-1,3.8-1.2,4.5c-0.1,0.4-0.3,0.8-0.7,1c-0.3,0.2-0.8,0.4-1.4,0.2
		c0,0,1.8,3.3,7.2,2.7c0,0-2.8-0.9-2.8-3.5c0-0.3,0.1-0.6,0.1-0.9l0.7-2.8c1,0.5,2.2,1,3.7,1.2c0.8,6.3,1.7,13.3,2,15.5l0,0
		c-0.2,1-0.9,2.2-2.6,2.7c0,0,0.9,0.6,2.3-0.2c0.8-0.5,1.7-0.8,2.6-1c0.9-0.2,4.2,0.1,4.9-2.4c-0.1,0.1-3.8,1.7-4.7-0.1l0,0l-2-14.3
		c1.2,0,2.4-0.1,3.6-0.3c1.1-0.2,2.5-0.5,4.1-0.7l0.7,20.7l0,0c0,0,0.4,0.9-0.5,1.6c-0.1,0.1,3.6-0.5,3.3-0.6
		c-0.3,0.1-0.4,0.1-0.1,0c0,0,0.1-0.2,0-0.5l-0.8-21.4c2.9-0.2,5.5-0.1,6.3,1c0,0,0.5,0.5,0.5,1.8c0,0.6,0.1,1.1,0.3,1.6
		c0.2,0.6,0.6,1.1,1.2,1.2C-167.7,386.5-168.5,382.3-165.9,380.7z M-192.1,378.5l1.8-7.1c0.2,1.6,0.6,4.6,1,8
		C-190.2,379.2-191.2,378.9-192.1,378.5z"/>
	<path class="st0" d="M-210.2,386.9l-0.1,0c0-0.4-0.1-0.7-0.2-1l0,0l0-0.1C-210.4,386.1-210.3,386.5-210.2,386.9z"/>
	<path class="st0" d="M-136.1,392.4c-0.6,0-1.1,0.4-1.5,0.9c-0.4,0.4-0.8,0.9-1.3,1.2c-0.9,0.5-2.2,0-3.2-0.1c-1.4-0.1-2.7,0-4,0.2
		l0,0c-0.3,0-0.3-0.1-0.4-0.4l0,0c0-0.1,0-0.1,0-0.2l0-0.1l0-0.1l0-0.1l-0.5-4.7c0.2-0.1,0.4-0.2,0.6-0.3c2.2-1.2,5-1.9,7.3-0.8
		c-1-1.2-1.9-2.2-5.1-1.9c-1,0.1-1.9,0.6-2.8,1c-0.1,0-0.1,0-0.2,0.1l-0.3-3.2l0,0c0-0.3,0.2-0.4,0.4-0.5c0.2-0.1,3.3-1,4.1-1.1
		c0.5-0.1,1.1-0.1,1.6-0.1c0.8,0.1,1.5,0.6,2.1,1.1c0.6,0.5,1.2,1.1,1.9,1.5c-0.1-0.6-0.3-1.2-0.4-1.7c-0.1-0.3-0.2-0.6-0.2-0.9
		c-0.1-1,0.2-1.9,0.5-2.8c-0.5-0.1-0.9,0-1.4,0c-2.1,0.3-3.5,0.9-5.6,1.3c-0.6,0.1-1.8,0.4-2.5,0.5c-1.7,0.2-3.7,0.4-5.3-0.1
		c0.6,0.6,1.1,1.3,1.6,1.8c0.3,0.3,0.6,0.8,0.7,1.3l0.5,4.2c-1.7,1.1-3.3,2.4-5.1,3.4c-0.1,0.1-0.2,0.1-0.3,0.2l-0.9-7.7l0,0l0-0.1
		l0-0.2c-0.2-3.5,4.4-6.1,4.4-6.1c-1.8-0.6-4,1.5-4,1.5c-1.4,1.3-2.2,1.2-2.4,1.2c-1.3-0.1-2.2,0-2.2,0c-1.2,0.2-1.4,1.2-1.4,1.2
		c2.6-0.7,3.2,1.9,3.3,2.5l0,0.1l1,8.7c-1.8,0.9-3.8,1.5-5.7,1.7l-0.2-2.5c-0.4-5.5,1.4-8.9,1.4-8.9c-1.9,0.7-2.7,1.7-3,2.2
		c-0.2,0.4-0.5,0.8-0.9,1.1c-0.4,0.3-0.8,0.5-0.8,0.5c-1.6,0.9-4,0.6-4,0.6c0.5,1,1.8,1.1,2.5,1.1c0.3,0,0.6,0,0.8,0.1
		c1,0.3,1.3,1.2,1.4,1.8l0,0c0.1,0.3,0.1,0.5,0.1,0.5l0,0l0.3,3.5c-1.4,0-2.9-0.3-4.3-0.8c1.3,1.2,2.8,1.9,4.4,2.3l0.7,7.2l0,0
		c0,0.1,0.1,3.2-2.8,4.1c0,0,0.9,0.6,2.4-0.2c0.8-0.5,1.7-0.9,2.7-1c0.9-0.2,4.3,0.1,5.1-2.5c-0.2,0.1-4.5,2.1-5-0.6l-0.6-6.6
		c0.5,0,1.1,0,1.6-0.1c1.4-0.2,2.8-0.6,4.2-1.1l0.5,4.4l0,0c0,0.4-0.1,0.5-0.4,0.6c-0.1,0-0.1,0-0.2,0.1c-0.8,0.3-1.7,0.4-2.5,0.2
		c0.9,0.8,2.1,1.1,3.3,0.9c1.2-0.2,2.3-0.8,3.2-1.4c1-0.7,1.9-1.5,2.9-2.1c1.2-0.8,2.5-1.4,3.9-1.8c0.6-0.2,1.2-0.3,1.8-0.3
		c0.5,0,1.1,0.1,1.6,0.2c1.2,0.3,2.4,0.6,3.7,0.7c1.2,0.1,2.4,0.1,3.6-0.3l0,0C-136.5,395.7-136.9,393.8-136.1,392.4z M-148.7,395.2
		c0,0.2-0.1,0.3-0.3,0.4c0,0,0,0,0,0c-0.1,0.1-0.3,0.2-0.4,0.2c-1.4,0.8-2.7,1.9-4,2.9c0,0,0,0,0,0c-0.3,0.2-0.5,0-0.6-0.3
		c0,0,0,0,0,0l-0.5-4.1c0.6-0.4,1.2-0.8,1.8-1.2c1.2-0.8,2.3-1.8,3.5-2.7l0.4,4.1L-148.7,395.2L-148.7,395.2z"/>
	<path class="st0" d="M-179,407.2c-0.1,0.1-0.2,0.2-0.4,0.3C-179.2,407.3-179.1,407.2-179,407.2z"/>
	<path class="st0" d="M-169.2,398.8l-0.1-0.5C-169.2,398.6-169.2,398.8-169.2,398.8z"/>
	<path class="st0" d="M-150.2,401.3l0-0.1l0,0C-150.2,401.2-150.2,401.2-150.2,401.3z"/>
	<path class="st0" d="M-117.7,394.6c-0.7,0.2-1.5,0.2-2.2,0c-0.6-0.2-1.2-0.6-1.6-1c-1.2-1.3-1.3-3.2-1.6-4.8
		c-0.3-1.7-0.9-3.4-2.3-4.5c-0.4-0.3-0.9-0.6-1.6-0.7c0.4-0.2,0.9-0.4,1.3-0.7c0.3-0.2,0.6-0.4,0.9-0.7c0.7-0.6,1.1-1.5,1.1-2.5
		c0-0.9-0.3-1.8-1-2.5c-0.3-0.3-0.7-0.6-1.1-0.8c-1.3-0.7-3-0.9-4.5-0.8c-1.6,0.1-3,0.4-4.5,0.6c-0.4,0.1-0.9,0.1-1.4,0.1
		c-0.6-0.1-1.3-0.2-1.7-0.6c0,0.3,0.3,0.7,0.5,1c1,1.2,3.2,1.2,4.4,1.2l-0.1,17.9c0,0.1-0.4,2.7-2.2,3.2c0,0,0.8,0.5,2.1-0.1
		c0.8-0.4,1.6-0.6,2.5-0.8c0.8-0.1,3.8,0.3,4.7-1.9c0,0-4.1,1.6-4.4-0.7l0,0l-0.5-11c1.8-0.2,4.9,0.4,5.2,3.8c0.9,11,7,9.7,7.6,9.6
		c1-0.2,2.9-0.9,4-2c1.6-1.5,2.5-5.6,2.5-5.6C-114.6,393.9-116.9,394.4-117.7,394.6z M-127.9,382.3c-0.7,0.6-1.4,0.6-2.3,0.6
		c-0.3,0-0.6-0.1-0.9-0.1l-0.2-5.1c0.4-0.1,2.2-0.7,3.7,0.2c0.8,0.4,1,1.4,1,2.3C-126.8,380.9-127.2,381.7-127.9,382.3z"/>
	<path class="st0" d="M-191.2,433.4c-0.4,1.6-0.4,3.3,0.2,4.9c0.5,1.4,1.5,2.3,2.9,3c0,0-3.2,0.7-6.2,0.3c-0.9,0-5.3-0.3-9.6-2.7
		c-1.3-0.7-2.8-1.2-4.3-1.4c-0.6-0.1-1.3-0.1-2.1,0l0,0c-1.8,0.3-3.6,1-5.2,2.1c-1,0.6-1.9,1.4-2.7,2.2c0.4-1.7,1.4-3.3,2.9-4.4
		c1.4-1.1,3.2-1.9,4.9-2.3c0.1,0,0.1,0,0.2,0c0,0,0,0,0,0c0.3-0.1,0.6-0.1,0.9-0.2l0,0c0,0,0,0,0,0c0.7-0.2,0.7-1.3,0.7-1.3
		c0-5.4,1-11.7,2.9-18.7c0.4-1.6,0.9-3.1,1.3-4.4c0-0.1,0.1-0.2,0.1-0.2c0.2-0.6,0.3-1.1,0.4-1.6c0.2-1,0.3-2.1-0.4-2.9
		c-0.6-0.6-1.5-0.7-2.3-0.6c-1.9,0.2-3.6,1.3-5.4,2.1c-1.5,0.6-3,1-4.6,1.1c-0.8,0.1-1.7,0.1-2.5-0.2c-0.8-0.3-1.5-0.9-1.6-1.7
		c0.5,0.7,1.4,1.1,2.3,1.1c0.9,0,1.7-0.3,2.5-0.6c2.2-0.9,4.1-2.4,6.3-3.5c3.1-1.5,6.8-1.9,10.3-1.5c2,0.2,4.7,0.2,5.6,0
		c-0.7,0.6-1.7,1.5-2.4,2.1c-2.5,2.2-4.5,4.8-5.5,8.2c-1.7,5.7-3.7,13.8-3.8,21.2c0,0.1,0,0.1,0,0.2c0,1.2,0.8,1.6,1,1.7
		c0,0,0,0,0,0c0.8,0.2,1.6,0.6,2.4,1.1c0,0,2.6,1.7,4.3,1.5c0.9-0.2,2.1-0.9,2.7-1.7c0.2-0.2,1.2-1.9,1.3-2.2
		c0.3-0.6,0.6-1.1,0.9-1.7c0.6-1,1.5-2.1,2.3-3c0.8-0.9,1.8-1.6,3-1.7c-0.5,0.1-1.7,1.7-1.9,2c-0.3,0.4-0.5,0.8-0.7,1.2
		C-190.5,431.5-190.9,432.4-191.2,433.4z"/>
	<path class="st0" d="M-207.4,436.9c-0.3,0.1-0.6,0.1-0.9,0.2C-208.3,437.1-208,437-207.4,436.9L-207.4,436.9z"/>
	<path class="st0" d="M-168.6,412c-0.4,1.1-1.5,1.6-2.6,1.9c-1.1,0.3-2.3,0.3-3.3,0.9c-0.5,0.3-1,0.7-1.4,1.2
		c-1,1.1-1.9,2.3-2.6,3.6c0,0,0,0,0,0c-2.9,6.3-1.9,16.8-1.9,16.8c0.3,2.7,4.9,0.9,4.9,0.9c-1,2.6-4.4,2.1-5.3,2.2
		c-1,0.1-1.9,0.4-2.8,0.9c-1.5,0.7-2.4,0.1-2.4,0.1c3.1-0.8,3.1-3.9,3.1-3.9c-0.5-5-0.2-9.2,0.4-12.6c0,0,0,0,0,0
		c0.2-1.1-0.4-2-0.4-2l-5.3-6.7c-1.4-1.8-3.1-1.2-3.5-1.1c0,0,0,0,0,0s0,0,0,0c-0.5,0.3-1,0.6-1.3,1c0-0.6,0.1-1.2,0.5-1.7
		c0.6-0.7,1.5-1.1,2.2-1.6c0.8-0.5,1.4-1,2.2-1.5c0.8-0.5,1.6-0.8,2.5-0.7c-0.5,0.6-0.7,1.5-0.7,2.3c0,0.4,0,0.7,0.1,1.1
		c0.2,0.7,1.6,4,4.7,6.6c0,0,0,0,0.1,0.1c1.3-4,2.9-6.1,3-6.2c0,0,0,0,0,0c0.1-0.4,0.3-0.8,0.4-1.2c0.2-1.1-0.1-2.3-0.8-3.2
		c-0.4-0.5-1-0.9-1.7-0.8c1.3-0.8,2.9-0.6,4,0.4c0.4,0.4,0.7,1,1.1,1.5c0.4,0.6,0.8,1.1,1.3,1.5C-172.6,413.1-170.2,413.2-168.6,412
		z"/>
	<path class="st0" d="M-149.7,407c-0.7-0.3-1.6-0.2-2.3,0.1c-0.5,0.2-0.9,0.6-1.3,1c-1.3,1.3-1,3.9-1,3.9l1.3,37.4l-13.7-26.6
		l0.6,10.5c0.5,5.1,0.7,5.6,0.7,5.6c0,0,0,0,0,0c0.3,0.2,0.5,0.4,0.8,0.6c0.6,0.5,1.3,1,2.1,1.2c0.8,0.2,1.7,0.2,2.3-0.3
		c0.2-0.1,0.4-0.3,0.4-0.5l0,0c-0.1,0.9-0.8,1.8-1.7,2.1c-0.9,0.3-1.9,0.2-2.8,0c-0.9-0.3-1.7-0.8-2.5-1.3c-0.4-0.3-0.9-0.5-1.3-0.8
		c-0.7-0.4-1.5-0.9-2.3-1.1c-0.8-0.2-1.8-0.2-2.5,0.3c0.2-0.5,0.6-0.8,1-1.1c1-0.6,2.2-0.8,3.3-0.7l0,0c0.4,0,0.4-0.7,0.4-0.7
		l-1.1-16.6l0,0c-0.1-0.4-0.2-0.8-0.5-1c-0.3-0.3-0.8-0.3-1.3-0.2c-1.4,0.4-2.6,1.7-2.6,3.2c-0.4-1.1-0.4-2.2,0-3.3
		c0.4-1.1,1.2-1.9,2.3-2.4c0.8-0.4,1.7-0.5,2.6-0.8c1.8-0.5,3.4-1.5,4.6-2.9c0.4,0.4,0.3,1,0.1,1.4c-0.2,0.5-0.6,0.8-0.9,1.3
		c-0.4,0.5-0.6,1.2-0.6,1.8c0,0.1,0,0.1,0,0.2c0,3.1,9.8,20.6,9.8,20.6l-1.3-26.6c-0.7,0.4-1.5,0.5-2.2,0.4
		c-0.9-0.2-1.7-0.9-1.9-1.8l0,0c0.1,0.2,0.3,0.4,0.4,0.5c0.7,0.3,1.5,0.2,2.1-0.1c0.7-0.4,1.2-0.9,1.7-1.5c0.5-0.7,1-1.4,1.6-1.9
		c1.3-1.2,3.2-1.5,4.7-0.8C-150.4,406.2-149.9,406.5-149.7,407z"/>
	<path class="st0" d="M-125.4,402.4c-0.4,0.7-1,1.3-1.7,1.6c-0.8,0.4-1.6,0.5-2.4,0.9c-0.6,0.3-1.2,0.8-1.4,1.5l0,0l1.4,37.8
		l-13.7-32.4l0.9,24.6c0.7,0.3,1.4,0.8,2.2,1c1.1,0.2,2.4-0.4,2.9-1.4c0,1.1-0.5,2.2-1.3,2.9c-1.5,1.2-3.6,0.1-3.6,0.1
		c-1.3-0.9-2.3-0.8-2.3-0.8c-2.1-0.2-3.4,1.9-3.4,1.9c0.2-1.7,1.5-3.2,3.1-3.7l-1.2-29.1c-0.1-0.4,0-1-0.4-1.3
		c-0.3-0.3-0.8-0.3-1.1-0.1c-0.5,0.2-0.9,0.7-1.1,1.1c0.1-0.9,0.4-1.7,0.9-2.5c0.2-0.3,0.5-0.6,0.8-0.8c0.5-0.4,1.2-0.6,1.9-0.7
		c0.7-0.1,1.3-0.2,2-0.4c0.6-0.3,1.2-0.7,1.4-1.3c0.1,0.6,0,1.2-0.3,1.7c-0.2,0.3-0.4,0.6-0.7,0.9c-0.1,0.2-0.2,0.4-0.3,0.6
		l10.2,26.1l-0.6-23.9c-0.2-1.3-0.7-2.6-1.8-3.4c-1-0.8-2.8-1-3.7-0.1c0.7-1.3,1.7-1.7,2.8-2c2.5-0.5,4.9,1.8,7.5,1.6
		c1.4-0.1,2.6-0.8,3.2-2.3C-124.8,400.8-125,401.7-125.4,402.4z"/>
	<path class="st0" d="M-133.4,442.8c0,0,0,0.1-0.1,0.1C-133.5,442.9-133.5,442.8-133.4,442.8L-133.4,442.8z"/>
	<path class="st0" d="M-178.3,403c-0.9,0.7-2,1.2-3.2,1.3c0.4,0.6,1.2,1,2,1c0.8,0,1.5-0.4,2.2-0.3c1,0.1,1.7,1.1,2.5,1.6
		c1.5,0.9,3.6,0.2,4.4-1.3c-0.4,0.4-1.1,0.4-1.6,0.3s-1-0.5-1.4-0.9c-1-0.8-1.7-1.9-1.9-3.2c-0.7,0.1-1.8-0.4-2.7-0.1L-178.3,403z"
		/>
</g>
</svg>
