<?xml version="1.0" encoding="utf-8"?>
<!-- Generator: Adobe Illustrator 19.2.0, SVG Export Plug-In . SVG Version: 6.00 Build 0)  -->
<svg version="1.1" id="Layer_1" xmlns="http://www.w3.org/2000/svg" xmlns:xlink="http://www.w3.org/1999/xlink" x="0px" y="0px"
	 viewBox="0 0 146.8 96" style="enable-background:new 0 0 146.8 96;" xml:space="preserve">
<style type="text/css">
	.st0{fill:#231F20;}
</style>
<g>
	<path class="st0" d="M51.9,39.8c-0.4,0.1-0.6,0.1-0.7,0.1C51.3,39.8,51.5,39.8,51.9,39.8z"/>
	<path class="st0" d="M43.7,30.8c0-0.2-0.1-0.4-0.1-0.6"/>
	<path class="st0" d="M39.5,24.3c-0.1,0.3,0,0.6,0.1,0.9s0.4,0.5,0.6,0.7c0.3,0.3,0.5,0.5,0.8,0.7c0.2,0.1,0.3,0.2,0.5,0.3"/>
	<path class="st0" d="M43.6,30.2L43.6,30.2c-0.1-0.4-0.2-0.7-0.3-1l0,0c-0.1-0.2-0.1-0.4-0.2-0.6c-0.3-0.7-0.9-1.3-1.5-1.8
		c0.1,0,0.2,0.1,0.3,0.2c0.6,0.4,1.1,1,1.4,1.7c0,0.1,0.1,0.2,0.1,0.3l0,0C43.4,29.4,43.5,29.8,43.6,30.2z"/>
	<path class="st0" d="M56.9,42.2c-4.1-3.3-2.2-6.8-2.2-6.8c-1,0.1-2.1,2.4-2.1,2.5c-0.8,1.4-2,1.9-2.8,2.1c-0.4,0.1-0.6,0.1-0.7,0.1
		l0,0c0,0-3.8,0.6-4.3-1.4l-0.3-5.1c2.9-0.9,6-1.1,8.7,0.1l0.2-0.1c-1.4-1.5-2.5-2.7-7.1-2.6c-0.7,0-1.3,0.2-1.9,0.3l-0.2-3.1l0,0
		c0-0.1,0.1-0.3,0.2-0.4c0.1-0.1,0.3-0.2,0.4-0.2c1.2-0.4,2.3-0.7,3.6-0.9c0.3-0.1,0.7-0.1,1.1,0c0.8,0.1,1.4,0.8,2,1.3
		c0.6,0.6,1.3,1.1,2.2,1.1c-1-0.9-1.4-2.3-1.3-3.6s0.6-2.6,1.3-3.7c0,0-1.2,0.1-2.9,1.1c0,0-4.3,2.8-8.9,1.8c0,0-1.7-0.1-3.2-1.3
		c0,0-0.4,1,1.3,2.3c0.1,0,0.1,0.1,0.2,0.2c0.1,0.1,0.2,0.1,0.3,0.2c0.6,0.5,1,1.1,1.3,1.9c0,0.1,0.1,0.2,0.1,0.4l0,0
		c0,0.1,0,0.2,0,0.2l0.3,3.8c-1.6,0.5-3.1,1.2-4.5,1.9l-0.5-14.2l0.1-0.2c0,0,2.1-3.4,5-4.5c0,0-1.5-0.7-3.8,0.6
		c0,0-3.2,1.8-6.9,1.9c0,0-2-0.1-2.7-0.5c0,0,0.1,1.5,3.1,1.9c0,0,1.8,0,2.2,2l0,0l0.6,14.6c-1,0.5-2,1-3,1.5
		c-2.1,1-4.3,1.8-6.6,2.3l-1.6-15.6c0,0-1.1-6.8,0.1-8c0,0,3.1-4.4,8.5-2.4c0,0-2.7-3.7-8-1.6c-0.3,0.1-0.6,0.3-0.8,0.4
		c-1,0.7-4.1,2.5-7,2.8c0,0-6.9,1.1-11.7-4.3c0,0,1.4,5.7,6.3,7c0.3,0.1,0.6,0.1,0.9,0.2c1,0.1,3.2,0.4,4.4,0.2
		c1.9-0.2,3.4,0.2,3.9,4.8l1.9,17.1c-3.9,0.5-7.8,0.3-11.5-1c3.3,2.7,7.6,3.8,11.8,3.6l0,0c0.4,2.9,1.1,9.5-0.3,9.9
		c0,0-5.7,1.7-5.4,6c0,0,1.7-1.5,3.6-2.3s4.1-0.5,6.2-0.4c2.2,0.1,5.4-0.2,7.9-2.6c0,0-2.7,0.8-6.4-0.7c-0.5-0.2-1.4-0.4-1.8-4.4
		l-0.6-5.9c3.1-0.6,6-1.8,8.8-3.3c0.2-0.1,0.4-0.2,0.7-0.4l0.1,3.2c0,1.3-0.4,4-3.2,3.8c0,0-1.3,0.1-2.3-1.6c0,0-0.3,2.9,2.4,3.4
		c0,0,2,0.3,4.1-1.2c0.3-0.2,0.5-0.4,0.8-0.5c1.6-0.9,7.2-3.6,14.7-3.5c0,0,4.9,0,7.2,0.7C58.2,43.1,57.7,42.7,56.9,42.2z
		 M40.3,41.7c0,0-2.2,0.9-2.6-1.2l-0.1-3.6c1.5-0.9,3-1.8,4.6-2.5l0.2,3.4l0,0C42.3,37.9,42.7,40.8,40.3,41.7z"/>
	<path class="st0" d="M87.9,24c0,0-5.2-4.1-16-1.7c-1.1,0.2-2.8,0.6-4.8,0.6L64.5,4v0.4V3.3c0,0.1-2.7,10.3-4.6,17.4
		c-1.4-1-2.7-2.4-3.8-4.4c0,0.1,0.2,3.6,3.3,6.2c-0.6,2.2-1,3.8-1.2,4.5c-0.1,0.4-0.3,0.8-0.7,1c-0.3,0.2-0.8,0.4-1.4,0.2
		c0,0,1.8,3.3,7.2,2.7c0,0-2.8-0.9-2.8-3.5c0-0.3,0.1-0.6,0.1-0.9l0.7-2.8c1,0.5,2.2,1,3.7,1.2c0.8,6.3,1.7,13.3,2,15.5l0,0
		c-0.2,1-0.9,2.2-2.6,2.7c0,0,0.9,0.6,2.3-0.2c0.8-0.5,1.7-0.8,2.6-1s4.2,0.1,4.9-2.4c-0.1,0.1-3.8,1.7-4.7-0.1l0,0l-2-14.3
		c1.2,0,2.4-0.1,3.6-0.3c1.1-0.2,2.5-0.5,4.1-0.7l0.7,20.7l0,0c0,0,0.4,0.9-0.5,1.6c-0.1,0.1,3.6-0.5,3.3-0.6
		c-0.3,0.1-0.4,0.1-0.1,0c0,0,0.1-0.2,0-0.5l-0.8-21.4c2.9-0.2,5.5-0.1,6.3,1c0,0,0.5,0.5,0.5,1.8c0,0.6,0.1,1.1,0.3,1.6
		c0.2,0.6,0.6,1.1,1.2,1.2C86.1,29.8,85.3,25.6,87.9,24z M61.7,21.8l1.8-7.1c0.2,1.6,0.6,4.6,1,8C63.6,22.5,62.6,22.2,61.7,21.8z"/>
	<path class="st0" d="M43.6,30.2L43.6,30.2c-0.1-0.4-0.2-0.7-0.3-1l0,0v-0.1C43.4,29.4,43.5,29.8,43.6,30.2z"/>
	<path class="st0" d="M117.7,35.7c-0.6,0-1.1,0.4-1.5,0.9c-0.4,0.4-0.8,0.9-1.3,1.2c-0.9,0.5-2.2,0-3.2-0.1c-1.4-0.1-2.7,0-4,0.2
		l0,0c-0.3,0-0.3-0.1-0.4-0.4l0,0c0-0.1,0-0.1,0-0.2v-0.1v-0.1V37l-0.5-4.7c0.2-0.1,0.4-0.2,0.6-0.3c2.2-1.2,5-1.9,7.3-0.8
		c-1-1.2-1.9-2.2-5.1-1.9c-1,0.1-1.9,0.6-2.8,1c-0.1,0-0.1,0-0.2,0.1l-0.3-3.2l0,0c0-0.3,0.2-0.4,0.4-0.5s3.3-1,4.1-1.1
		c0.5-0.1,1.1-0.1,1.6-0.1c0.8,0.1,1.5,0.6,2.1,1.1s1.2,1.1,1.9,1.5c-0.1-0.6-0.3-1.2-0.4-1.7c-0.1-0.3-0.2-0.6-0.2-0.9
		c-0.1-1,0.2-1.9,0.5-2.8c-0.5-0.1-0.9,0-1.4,0c-2.1,0.3-3.5,0.9-5.6,1.3c-0.6,0.1-1.8,0.4-2.5,0.5c-1.7,0.2-3.7,0.4-5.3-0.1
		c0.6,0.6,1.1,1.3,1.6,1.8c0.3,0.3,0.6,0.8,0.7,1.3l0.5,4.2c-1.7,1.1-3.3,2.4-5.1,3.4c-0.1,0.1-0.2,0.1-0.3,0.2L98,27.6l0,0v-0.1
		v-0.2c-0.2-3.5,4.4-6.1,4.4-6.1c-1.8-0.6-4,1.5-4,1.5C97,24,96.2,23.9,96,23.9c-1.3-0.1-2.2,0-2.2,0c-1.2,0.2-1.4,1.2-1.4,1.2
		c2.6-0.7,3.2,1.9,3.3,2.5v0.1l1,8.7c-1.8,0.9-3.8,1.5-5.7,1.7l-0.2-2.5c-0.4-5.5,1.4-8.9,1.4-8.9c-1.9,0.7-2.7,1.7-3,2.2
		c-0.2,0.4-0.5,0.8-0.9,1.1s-0.8,0.5-0.8,0.5c-1.6,0.9-4,0.6-4,0.6c0.5,1,1.8,1.1,2.5,1.1c0.3,0,0.6,0,0.8,0.1
		c1,0.3,1.3,1.2,1.4,1.8l0,0c0.1,0.3,0.1,0.5,0.1,0.5l0,0l0.3,3.5c-1.4,0-2.9-0.3-4.3-0.8c1.3,1.2,2.8,1.9,4.4,2.3l0.7,7.2l0,0
		c0,0.1,0.1,3.2-2.8,4.1c0,0,0.9,0.6,2.4-0.2c0.8-0.5,1.7-0.9,2.7-1c0.9-0.2,4.3,0.1,5.1-2.5c-0.2,0.1-4.5,2.1-5-0.6L91.2,40
		c0.5,0,1.1,0,1.6-0.1c1.4-0.2,2.8-0.6,4.2-1.1l0.5,4.4l0,0c0,0.4-0.1,0.5-0.4,0.6c-0.1,0-0.1,0-0.2,0.1c-0.8,0.3-1.7,0.4-2.5,0.2
		c0.9,0.8,2.1,1.1,3.3,0.9s2.3-0.8,3.2-1.4c1-0.7,1.9-1.5,2.9-2.1c1.2-0.8,2.5-1.4,3.9-1.8c0.6-0.2,1.2-0.3,1.8-0.3
		c0.5,0,1.1,0.1,1.6,0.2c1.2,0.3,2.4,0.6,3.7,0.7c1.2,0.1,2.4,0.1,3.6-0.3l0,0C117.3,39,116.9,37.1,117.7,35.7z M105.1,38.5
		c0,0.2-0.1,0.3-0.3,0.4l0,0c-0.1,0.1-0.3,0.2-0.4,0.2c-1.4,0.8-2.7,1.9-4,2.9l0,0c-0.3,0.2-0.5,0-0.6-0.3l0,0l-0.5-4.1
		c0.6-0.4,1.2-0.8,1.8-1.2c1.2-0.8,2.3-1.8,3.5-2.7l0.4,4.1L105.1,38.5L105.1,38.5z"/>
	<path class="st0" d="M74.8,50.5c-0.1,0.1-0.2,0.2-0.4,0.3C74.6,50.6,74.7,50.5,74.8,50.5z"/>
	<path class="st0" d="M84.6,42.1l-0.1-0.5C84.6,41.9,84.6,42.1,84.6,42.1z"/>
	<path class="st0" d="M103.6,44.6L103.6,44.6L103.6,44.6C103.6,44.5,103.6,44.5,103.6,44.6z"/>
	<path class="st0" d="M136.1,37.9c-0.7,0.2-1.5,0.2-2.2,0c-0.6-0.2-1.2-0.6-1.6-1c-1.2-1.3-1.3-3.2-1.6-4.8
		c-0.3-1.7-0.9-3.4-2.3-4.5c-0.4-0.3-0.9-0.6-1.6-0.7c0.4-0.2,0.9-0.4,1.3-0.7c0.3-0.2,0.6-0.4,0.9-0.7c0.7-0.6,1.1-1.5,1.1-2.5
		c0-0.9-0.3-1.8-1-2.5c-0.3-0.3-0.7-0.6-1.1-0.8c-1.3-0.7-3-0.9-4.5-0.8c-1.6,0.1-3,0.4-4.5,0.6c-0.4,0.1-0.9,0.1-1.4,0.1
		c-0.6-0.1-1.3-0.2-1.7-0.6c0,0.3,0.3,0.7,0.5,1c1,1.2,3.2,1.2,4.4,1.2l-0.1,17.9c0,0.1-0.4,2.7-2.2,3.2c0,0,0.8,0.5,2.1-0.1
		c0.8-0.4,1.6-0.6,2.5-0.8c0.8-0.1,3.8,0.3,4.7-1.9c0,0-4.1,1.6-4.4-0.7l0,0l-0.5-11c1.8-0.2,4.9,0.4,5.2,3.8c0.9,11,7,9.7,7.6,9.6
		c1-0.2,2.9-0.9,4-2c1.6-1.5,2.5-5.6,2.5-5.6C139.2,37.2,136.9,37.7,136.1,37.9z M125.9,25.6c-0.7,0.6-1.4,0.6-2.3,0.6
		c-0.3,0-0.6-0.1-0.9-0.1l-0.2-5.1c0.4-0.1,2.2-0.7,3.7,0.2c0.8,0.4,1,1.4,1,2.3C127,24.2,126.6,25,125.9,25.6z"/>
	<path class="st0" d="M62.6,76.7c-0.4,1.6-0.4,3.3,0.2,4.9c0.5,1.4,1.5,2.3,2.9,3c0,0-3.2,0.7-6.2,0.3c-0.9,0-5.3-0.3-9.6-2.7
		c-1.3-0.7-2.8-1.2-4.3-1.4c-0.6-0.1-1.3-0.1-2.1,0l0,0c-1.8,0.3-3.6,1-5.2,2.1c-1,0.6-1.9,1.4-2.7,2.2c0.4-1.7,1.4-3.3,2.9-4.4
		c1.4-1.1,3.2-1.9,4.9-2.3c0.1,0,0.1,0,0.2,0l0,0c0.3-0.1,0.6-0.1,0.9-0.2l0,0l0,0c0.7-0.2,0.7-1.3,0.7-1.3c0-5.4,1-11.7,2.9-18.7
		c0.4-1.6,0.9-3.1,1.3-4.4c0-0.1,0.1-0.2,0.1-0.2c0.2-0.6,0.3-1.1,0.4-1.6c0.2-1,0.3-2.1-0.4-2.9c-0.6-0.6-1.5-0.7-2.3-0.6
		c-1.9,0.2-3.6,1.3-5.4,2.1c-1.5,0.6-3,1-4.6,1.1c-0.8,0.1-1.7,0.1-2.5-0.2s-1.5-0.9-1.6-1.7c0.5,0.7,1.4,1.1,2.3,1.1
		s1.7-0.3,2.5-0.6c2.2-0.9,4.1-2.4,6.3-3.5c3.1-1.5,6.8-1.9,10.3-1.5c2,0.2,4.7,0.2,5.6,0c-0.7,0.6-1.7,1.5-2.4,2.1
		c-2.5,2.2-4.5,4.8-5.5,8.2c-1.7,5.7-3.7,13.8-3.8,21.2c0,0.1,0,0.1,0,0.2c0,1.2,0.8,1.6,1,1.7l0,0c0.8,0.2,1.6,0.6,2.4,1.1
		c0,0,2.6,1.7,4.3,1.5c0.9-0.2,2.1-0.9,2.7-1.7c0.2-0.2,1.2-1.9,1.3-2.2c0.3-0.6,0.6-1.1,0.9-1.7c0.6-1,1.5-2.1,2.3-3s1.8-1.6,3-1.7
		c-0.5,0.1-1.7,1.7-1.9,2c-0.3,0.4-0.5,0.8-0.7,1.2C63.3,74.8,62.9,75.7,62.6,76.7z"/>
	<path class="st0" d="M46.4,80.2c-0.3,0.1-0.6,0.1-0.9,0.2C45.5,80.4,45.9,80.3,46.4,80.2L46.4,80.2z"/>
	<path class="st0" d="M85.2,55.3c-0.4,1.1-1.5,1.6-2.6,1.9s-2.3,0.3-3.3,0.9c-0.5,0.3-1,0.7-1.4,1.2c-1,1.1-1.9,2.3-2.6,3.6l0,0
		c-2.9,6.3-1.9,16.8-1.9,16.8c0.3,2.7,4.9,0.9,4.9,0.9c-1,2.6-4.4,2.1-5.3,2.2c-1,0.1-1.9,0.4-2.8,0.9c-1.5,0.7-2.4,0.1-2.4,0.1
		c3.1-0.8,3.1-3.9,3.1-3.9c-0.5-5-0.2-9.2,0.4-12.6l0,0c0.2-1.1-0.4-2-0.4-2l-5.3-6.7c-1.4-1.8-3.1-1.2-3.5-1.1l0,0l0,0
		c-0.5,0.3-1,0.6-1.3,1c0-0.6,0.1-1.2,0.5-1.7c0.6-0.7,1.5-1.1,2.2-1.6c0.8-0.5,1.4-1,2.2-1.5s1.6-0.8,2.5-0.7
		c-0.5,0.6-0.7,1.5-0.7,2.3c0,0.4,0,0.7,0.1,1.1c0.2,0.7,1.6,4,4.7,6.6c0,0,0,0,0.1,0.1c1.3-4,2.9-6.1,3-6.2l0,0
		c0.1-0.4,0.3-0.8,0.4-1.2c0.2-1.1-0.1-2.3-0.8-3.2c-0.4-0.5-1-0.9-1.7-0.8c1.3-0.8,2.9-0.6,4,0.4c0.4,0.4,0.7,1,1.1,1.5
		c0.4,0.6,0.8,1.1,1.3,1.5C81.2,56.4,83.6,56.5,85.2,55.3z"/>
	<path class="st0" d="M104.1,50.3c-0.7-0.3-1.6-0.2-2.3,0.1c-0.5,0.2-0.9,0.6-1.3,1c-1.3,1.3-1,3.9-1,3.9l1.3,37.4L87.1,66.1
		l0.6,10.5c0.5,5.1,0.7,5.6,0.7,5.6l0,0c0.3,0.2,0.5,0.4,0.8,0.6c0.6,0.5,1.3,1,2.1,1.2s1.7,0.2,2.3-0.3c0.2-0.1,0.4-0.3,0.4-0.5
		l0,0c-0.1,0.9-0.8,1.8-1.7,2.1s-1.9,0.2-2.8,0C88.6,85,87.8,84.5,87,84c-0.4-0.3-0.9-0.5-1.3-0.8c-0.7-0.4-1.5-0.9-2.3-1.1
		s-1.8-0.2-2.5,0.3c0.2-0.5,0.6-0.8,1-1.1c1-0.6,2.2-0.8,3.3-0.7l0,0c0.4,0,0.4-0.7,0.4-0.7l-1.1-16.6l0,0c-0.1-0.4-0.2-0.8-0.5-1
		c-0.3-0.3-0.8-0.3-1.3-0.2c-1.4,0.4-2.6,1.7-2.6,3.2c-0.4-1.1-0.4-2.2,0-3.3s1.2-1.9,2.3-2.4c0.8-0.4,1.7-0.5,2.6-0.8
		c1.8-0.5,3.4-1.5,4.6-2.9c0.4,0.4,0.3,1,0.1,1.4c-0.2,0.5-0.6,0.8-0.9,1.3c-0.4,0.5-0.6,1.2-0.6,1.8c0,0.1,0,0.1,0,0.2
		c0,3.1,9.8,20.6,9.8,20.6l-1.3-26.6C96,55,95.2,55.1,94.5,55c-0.9-0.2-1.7-0.9-1.9-1.8l0,0c0.1,0.2,0.3,0.4,0.4,0.5
		c0.7,0.3,1.5,0.2,2.1-0.1c0.7-0.4,1.2-0.9,1.7-1.5c0.5-0.7,1-1.4,1.6-1.9c1.3-1.2,3.2-1.5,4.7-0.8
		C103.4,49.5,103.9,49.8,104.1,50.3z"/>
	<path class="st0" d="M128.4,45.7c-0.4,0.7-1,1.3-1.7,1.6c-0.8,0.4-1.6,0.5-2.4,0.9c-0.6,0.3-1.2,0.8-1.4,1.5l0,0l1.4,37.8
		l-13.7-32.4l0.9,24.6c0.7,0.3,1.4,0.8,2.2,1c1.1,0.2,2.4-0.4,2.9-1.4c0,1.1-0.5,2.2-1.3,2.9c-1.5,1.2-3.6,0.1-3.6,0.1
		c-1.3-0.9-2.3-0.8-2.3-0.8c-2.1-0.2-3.4,1.9-3.4,1.9c0.2-1.7,1.5-3.2,3.1-3.7l-1.2-29.1c-0.1-0.4,0-1-0.4-1.3
		c-0.3-0.3-0.8-0.3-1.1-0.1c-0.5,0.2-0.9,0.7-1.1,1.1c0.1-0.9,0.4-1.7,0.9-2.5c0.2-0.3,0.5-0.6,0.8-0.8c0.5-0.4,1.2-0.6,1.9-0.7
		c0.7-0.1,1.3-0.2,2-0.4c0.6-0.3,1.2-0.7,1.4-1.3c0.1,0.6,0,1.2-0.3,1.7c-0.2,0.3-0.4,0.6-0.7,0.9c-0.1,0.2-0.2,0.4-0.3,0.6
		l10.2,26.1L120.5,50c-0.2-1.3-0.7-2.6-1.8-3.4c-1-0.8-2.8-1-3.7-0.1c0.7-1.3,1.7-1.7,2.8-2c2.5-0.5,4.9,1.8,7.5,1.6
		c1.4-0.1,2.6-0.8,3.2-2.3C129,44.1,128.8,45,128.4,45.7z"/>
	<path class="st0" d="M120.4,86.1C120.4,86.1,120.4,86.2,120.4,86.1C120.3,86.2,120.3,86.1,120.4,86.1L120.4,86.1z"/>
	<path class="st0" d="M75.5,46.3c-0.9,0.7-2,1.2-3.2,1.3c0.4,0.6,1.2,1,2,1s1.5-0.4,2.2-0.3c1,0.1,1.7,1.1,2.5,1.6
		c1.5,0.9,3.6,0.2,4.4-1.3C83,49,82.2,49,81.7,48.9s-1-0.5-1.4-0.9c-1-0.8-1.7-1.9-1.9-3.2c-0.7,0.1-1.8-0.4-2.7-0.1L75.5,46.3z"/>
</g>
</svg>
